<svg aria-hidden="true" style="position: absolute; width: 0; height: 0; overflow: hidden;" version="1.1" xmlns="http://www.w3.org/2000/svg" xmlns:xlink="http://www.w3.org/1999/xlink">
<defs>
<symbol id="icon-arrow-right" viewBox="0 0 33 32">
<path fill="none" stroke="#fff" style="stroke: var(--color1, #fff)" stroke-linejoin="round" stroke-linecap="round" stroke-miterlimit="4" stroke-width="2.5803" d="M7.491 15.482h18.062"></path>
<path fill="none" stroke="#fff" style="stroke: var(--color1, #fff)" stroke-linejoin="round" stroke-linecap="round" stroke-miterlimit="4" stroke-width="2.5803" d="M16.521 6.451l9.031 9.031-9.031 9.031"></path>
</symbol>
<symbol id="icon-customer" viewBox="0 0 42 32">
<path fill="#dadada" style="fill: var(--color1, #dadada)" d="M26.167 31.467c-2.208-4.269-3.312-8.907-3.312-13.912 0-5.079 1.343-9.275 4.030-12.587s6.864-4.969 12.532-4.969v6.956c-1.987 0-3.441 0.442-4.361 1.325s-1.38 2.576-1.38 5.079v1.104h8.060v17.003h-15.568zM3.312 31.468c-2.208-4.269-3.312-8.907-3.312-13.912 0-5.079 1.343-9.275 4.030-12.587s6.864-4.969 12.532-4.969v6.956c-1.987 0-3.441 0.442-4.361 1.325s-1.38 2.576-1.38 5.079v1.104h8.060v17.003h-15.568z"></path>
</symbol>
<symbol id="icon-divider-1" viewBox="0 0 1309 32">
<path fill="#fbad18" style="fill: var(--color2, #fbad18)" opacity="0.2" d="M16.781 1.712h1276.574c8.327 0 15.078 6.75 15.078 15.078v0c0 8.327-6.751 15.078-15.078 15.078h-1276.574c-8.327 0-15.078-6.75-15.078-15.078v-0c0-8.327 6.751-15.078 15.078-15.078z"></path>
<path fill="#fbad18" style="fill: var(--color2, #fbad18)" d="M16.781 1.712h753.883c8.327 0 15.078 6.75 15.078 15.078v0c0 8.327-6.75 15.078-15.078 15.078h-753.883c-8.327 0-15.078-6.75-15.078-15.078v-0c0-8.327 6.751-15.078 15.078-15.078z"></path>
</symbol>
<symbol id="icon-divider" viewBox="0 0 1309 32">
<path fill="#6c5fbc" style="fill: var(--color3, #6c5fbc)" opacity="0.2" d="M16.781 1.525h1276.574c8.327 0 15.078 6.75 15.078 15.078v0c0 8.327-6.751 15.078-15.078 15.078h-1276.574c-8.327 0-15.078-6.75-15.078-15.078v-0c0-8.327 6.751-15.078 15.078-15.078z"></path>
<path fill="#6c5fbc" style="fill: var(--color3, #6c5fbc)" d="M16.781 1.525h919.736c8.327 0 15.078 6.75 15.078 15.078v0c0 8.327-6.75 15.078-15.078 15.078h-919.736c-8.327 0-15.078-6.75-15.078-15.078v-0c0-8.327 6.751-15.078 15.078-15.078z"></path>
</symbol>
<symbol id="icon-money" viewBox="0 0 32 32">
<path fill="#f2fdf6" style="fill: var(--color4, #f2fdf6)" d="M16.101 0.262c8.708 0 15.767 7.059 15.767 15.767s-7.059 15.767-15.767 15.767c-8.708 0-15.767-7.059-15.767-15.767s7.059-15.767 15.767-15.767z"></path>
<path fill="none" stroke="#22c55e" style="stroke: var(--color5, #22c55e)" stroke-linejoin="round" stroke-linecap="round" stroke-miterlimit="10" stroke-width="0.9855" d="M19.386 22.107h-6.57c-1.971 0-3.285-0.985-3.285-3.285v-4.599c0-2.299 1.314-3.285 3.285-3.285h6.57c1.971 0 3.285 0.985 3.285 3.285v4.599c0 2.299-1.314 3.285-3.285 3.285z"></path>
<path fill="none" stroke="#22c55e" style="stroke: var(--color5, #22c55e)" stroke-linejoin="round" stroke-linecap="round" stroke-miterlimit="10" stroke-width="0.9855" d="M16.101 18.493c1.088 0 1.971-0.882 1.971-1.971s-0.882-1.971-1.971-1.971c-1.088 0-1.971 0.882-1.971 1.971s0.882 1.971 1.971 1.971z"></path>
<path fill="none" stroke="#22c55e" style="stroke: var(--color5, #22c55e)" stroke-linejoin="round" stroke-linecap="round" stroke-miterlimit="10" stroke-width="0.9855" d="M11.831 14.88v3.285"></path>
<path fill="none" stroke="#22c55e" style="stroke: var(--color5, #22c55e)" stroke-linejoin="round" stroke-linecap="round" stroke-miterlimit="10" stroke-width="0.9855" d="M20.371 14.88v3.285"></path>
</symbol>
<symbol id="icon-expense" viewBox="0 0 32 32">
<path fill="#f4f0ff" style="fill: var(--color6, #f4f0ff)" d="M16.101 0.225c8.708 0 15.767 7.059 15.767 15.767s-7.059 15.767-15.767 15.767c-8.708 0-15.767-7.059-15.767-15.767s7.059-15.767 15.767-15.767z"></path>
<path fill="none" stroke="#936dff" style="stroke: var(--color7, #936dff)" stroke-linejoin="round" stroke-linecap="round" stroke-miterlimit="4" stroke-width="0.9855" d="M16.535 9.271l-0.020 0.046-1.905 4.421h-1.872c-0.447 0-0.874 0.092-1.261 0.256l1.15-2.746 0.026-0.066 0.046-0.105c0.013-0.039 0.026-0.079 0.046-0.112 0.861-1.991 1.833-2.444 3.791-1.695z"></path>
<path fill="none" stroke="#936dff" style="stroke: var(--color7, #936dff)" stroke-linejoin="round" stroke-linecap="round" stroke-miterlimit="4" stroke-width="0.9855" d="M20.076 13.869c-0.296-0.092-0.611-0.131-0.926-0.131h-4.54l1.925-4.467c0.099 0.033 0.191 0.079 0.289 0.118l1.452 0.611c0.808 0.335 1.373 0.683 1.715 1.104 0.066 0.079 0.118 0.151 0.164 0.236 0.059 0.092 0.105 0.184 0.131 0.283 0.026 0.059 0.046 0.118 0.059 0.171 0.177 0.552 0.072 1.229-0.269 2.076z"></path>
<path fill="none" stroke="#936dff" style="stroke: var(--color7, #936dff)" stroke-linejoin="round" stroke-linecap="round" stroke-miterlimit="4" stroke-width="0.9855" d="M22.356 16.944v1.281c0 0.131-0.007 0.263-0.013 0.394-0.125 2.293-1.406 3.449-3.837 3.449h-5.124c-0.158 0-0.315-0.013-0.466-0.033-2.089-0.138-3.206-1.255-3.344-3.344-0.020-0.151-0.033-0.309-0.033-0.466v-1.281c0-1.321 0.802-2.457 1.945-2.95 0.394-0.164 0.815-0.256 1.261-0.256h6.412c0.322 0 0.637 0.046 0.926 0.131 1.307 0.401 2.273 1.623 2.273 3.075z"></path>
<path fill="none" stroke="#936dff" style="stroke: var(--color7, #936dff)" stroke-linejoin="round" stroke-linecap="round" stroke-miterlimit="4" stroke-width="0.9855" d="M12.626 11.248l-1.15 2.746c-1.143 0.493-1.945 1.629-1.945 2.95v-1.925c0-1.866 1.327-3.423 3.094-3.771z"></path>
<path fill="none" stroke="#936dff" style="stroke: var(--color7, #936dff)" stroke-linejoin="round" stroke-linecap="round" stroke-miterlimit="4" stroke-width="0.9855" d="M22.355 15.019v1.925c0-1.445-0.959-2.674-2.273-3.068 0.342-0.854 0.44-1.524 0.276-2.083-0.013-0.059-0.033-0.118-0.059-0.171 1.222 0.631 2.056 1.925 2.056 3.397z"></path>
</symbol>
<symbol id="icon-heart" viewBox="0 0 39 32">
<path d="M1.043 11.222c0-5.705 5.005-10.098 10.88-10.098 3.028 0 5.693 1.42 7.606 3.257 1.912-1.837 4.577-3.257 7.606-3.257 5.875 0 10.88 4.393 10.88 10.098 0 3.908-1.667 7.345-3.976 10.25-2.305 2.9-5.32 5.362-8.207 7.362-1.103 0.764-2.218 1.468-3.239 1.989-0.959 0.488-2.061 0.935-3.064 0.935s-2.105-0.447-3.064-0.935c-1.021-0.52-2.136-1.225-3.239-1.989-2.887-2-5.902-4.461-8.207-7.362-2.309-2.905-3.976-6.342-3.976-10.25zM11.923 4.293c-4.393 0-7.711 3.231-7.711 6.929 0 2.965 1.259 5.726 3.287 8.278 2.033 2.558 4.768 4.814 7.531 6.728 1.046 0.724 2.030 1.341 2.873 1.77 0.905 0.461 1.429 0.59 1.626 0.59s0.721-0.13 1.626-0.59c0.842-0.429 1.827-1.045 2.873-1.77 2.763-1.914 5.498-4.171 7.531-6.728 2.029-2.553 3.288-5.313 3.288-8.278 0-3.699-3.319-6.929-7.711-6.929-2.523 0-4.879 1.507-6.349 3.42-0.3 0.39-0.764 0.619-1.256 0.619s-0.956-0.229-1.256-0.619c-1.471-1.913-3.827-3.42-6.349-3.42z"></path>
</symbol>
<symbol id="icon-bookmark" viewBox="0 0 32 32">
<path fill="#dbd9ee" style="fill: var(--color8, #dbd9ee)" d="M31.428 15.807c0 8.639-7.004 15.643-15.643 15.643s-15.643-7.004-15.643-15.643c0-8.639 7.004-15.643 15.643-15.643s15.643 7.004 15.643 15.643z"></path>
<path fill="#6c5fbc" style="fill: var(--color3, #6c5fbc)" d="M19.213 8.495c-2.265-0.38-4.589-0.38-6.853 0-0.827 0.139-1.486 0.774-1.652 1.597-0.76 3.773-0.801 7.655-0.122 11.443l0.277 1.542c0.085 0.476 0.665 0.666 1.015 0.333l3.338-3.171c0.32-0.304 0.822-0.304 1.143 0l3.338 3.171c0.35 0.333 0.93 0.143 1.015-0.333l0.277-1.542c0.679-3.788 0.638-7.671-0.122-11.443-0.166-0.824-0.825-1.459-1.652-1.597z"></path>
</symbol>
<symbol id="icon-star" viewBox="0 0 31 32">
<path fill="#6c5fbc" style="fill: var(--color3, #6c5fbc)" d="M18.962 25.703c2.020 1.105 3.796-0.234 3.409-2.579l-0.693-4.21 2.938-2.981c1.634-1.658 0.959-3.831-1.302-4.173l-4.060-0.614-1.807-3.811c-1.012-2.135-3.209-2.158-4.223-0.019l-1.816 3.83-4.060 0.614c-2.258 0.342-2.938 2.512-1.302 4.173l2.938 2.981-0.694 4.21c-0.386 2.341 1.387 3.686 3.409 2.579l3.631-1.988 3.631 1.988z"></path>
</symbol>
<symbol id="icon-arrow" viewBox="0 0 89 32">
<path fill="#6c5fbc" style="fill: var(--color3, #6c5fbc)" d="M88.399 3.224c0.119-0.365-0.081-0.757-0.446-0.876s-0.757 0.081-0.876 0.446l1.322 0.43zM70.406 20.008v0zM49.801 8.519v0zM55.973 1.052v0zM62.524 6.499v0zM45.045 24.956v0zM26.277 13.117v0zM30.741 7.364v0zM17.22 31.091v0zM0.72 20.836l0.158-0.677c-0.247-0.058-0.506 0.024-0.675 0.213s-0.222 0.455-0.139 0.694l0.656-0.23zM6.805 22.967c0.374 0.087 0.748-0.145 0.835-0.519s-0.145-0.748-0.519-0.835l-0.315 1.354zM2.29 27.418c0.127 0.362 0.524 0.553 0.886 0.426s0.553-0.524 0.426-0.886l-1.312 0.46zM87.738 3.009c-0.661-0.215-0.661-0.215-0.661-0.216s0-0 0 0 0 0.001-0.001 0.001-0.001 0.003-0.002 0.006-0.005 0.016-0.009 0.029c-0.009 0.026-0.023 0.066-0.041 0.118-0.037 0.105-0.093 0.262-0.171 0.464-0.154 0.403-0.388 0.985-0.708 1.691-0.641 1.413-1.621 3.315-2.981 5.274-2.728 3.933-6.917 8.006-12.867 8.945l0.217 1.373c6.487-1.023 10.964-5.449 13.792-9.525 1.419-2.045 2.439-4.025 3.106-5.493 0.333-0.735 0.578-1.343 0.741-1.77 0.081-0.213 0.142-0.382 0.183-0.498 0.020-0.058 0.036-0.103 0.046-0.134 0.005-0.016 0.009-0.028 0.012-0.036 0.002-0.004 0.003-0.008 0.004-0.010 0.001-0.001 0.001-0.002 0.001-0.003s0-0.001 0-0.001 0.001-0.001-0.66-0.216zM70.297 19.321c-4.646 0.733-9.63-0.123-13.441-2.117-3.821-1.999-6.332-5.059-6.36-8.69l-1.39 0.011c0.034 4.341 3.035 7.781 7.106 9.911 4.080 2.135 9.367 3.037 14.302 2.259l-0.217-1.373zM50.496 8.513c-0.008-1.064 0.432-2.723 1.381-4.145 0.94-1.408 2.315-2.496 4.144-2.623l-0.096-1.387c-2.387 0.165-4.107 1.594-5.204 3.238-1.088 1.631-1.626 3.559-1.615 4.928l1.39-0.011zM56.021 1.745c1.73-0.12 2.968 0.563 3.893 1.551 0.946 1.010 1.559 2.336 1.957 3.439l1.307-0.472c-0.422-1.169-1.112-2.703-2.249-3.917-1.158-1.236-2.785-2.141-5.004-1.988l0.096 1.387zM61.871 6.735c1.587 4.395-0.105 8.454-3.519 11.622-3.425 3.179-8.507 5.369-13.383 5.907l0.153 1.382c5.141-0.568 10.51-2.867 14.177-6.27 3.678-3.414 5.716-8.030 3.88-13.114l-1.307 0.472zM44.968 24.265c-4.182 0.462-8.601-0.317-12.012-2.234-3.396-1.909-5.755-4.917-5.986-8.954l-1.388 0.079c0.264 4.614 2.983 8.001 6.693 10.087 3.696 2.078 8.414 2.893 12.845 2.404l-0.153-1.382zM26.971 13.077c-0.073-1.266 0.232-2.337 0.864-3.173 0.633-0.838 1.641-1.5 3.078-1.866l-0.342-1.347c-1.679 0.427-2.984 1.237-3.845 2.375-0.861 1.14-1.231 2.549-1.143 4.091l1.388-0.079zM30.913 8.038c1.314-0.334 2.377-0.067 3.275 0.579 0.926 0.666 1.708 1.762 2.347 3.126l1.259-0.589c-0.69-1.474-1.6-2.806-2.794-3.665-1.222-0.88-2.706-1.235-4.429-0.797l0.342 1.347zM36.534 11.742c2.137 4.568-0.123 9.355-4.376 13.036-4.243 3.672-10.219 5.992-14.882 5.62l-0.11 1.386c5.123 0.408 11.453-2.105 15.902-5.955 4.439-3.841 7.258-9.265 4.726-14.676l-1.259 0.589zM17.275 30.398c-3.619-0.288-7.604-2.733-10.756-5.211-1.559-1.226-2.884-2.434-3.819-3.335-0.467-0.451-0.836-0.824-1.087-1.084-0.126-0.13-0.222-0.231-0.286-0.3-0.032-0.034-0.056-0.060-0.072-0.077-0.008-0.009-0.014-0.015-0.018-0.019-0.002-0.002-0.003-0.003-0.004-0.004s-0.001-0.001-0.001-0.001-0-0-0-0 0 0-0.513 0.469-0.513 0.469-0.513 0.469 0 0 0.001 0.001 0.001 0.001 0.002 0.002 0.003 0.003 0.006 0.006 0.012 0.013 0.021 0.022c0.018 0.019 0.044 0.048 0.079 0.084 0.069 0.073 0.17 0.179 0.3 0.314 0.261 0.27 0.641 0.655 1.121 1.118 0.959 0.925 2.319 2.166 3.925 3.428 3.178 2.497 7.444 5.18 11.505 5.503l0.11-1.386zM0.562 21.513l6.243 1.454 0.315-1.354-6.243-1.454-0.315 1.354zM0.064 21.066l2.226 6.352 1.312-0.46-2.226-6.352-1.312 0.46z"></path>
</symbol>
<symbol id="icon-Illustration-01-1" viewBox="0 0 29 32">
<path fill="none" stroke="#6c5fbc" style="stroke: var(--color3, #6c5fbc)" stroke-linejoin="round" stroke-linecap="round" stroke-miterlimit="1.5" stroke-width="1.3677" d="M15.175 4.277c-4.855 2.232-9.406 4.972-14.143 7.413"></path>
<path fill="none" stroke="#6c5fbc" style="stroke: var(--color3, #6c5fbc)" stroke-linejoin="round" stroke-linecap="round" stroke-miterlimit="1.5" stroke-width="1.3677" d="M28.11 11.716c-8.683 0.871-17.405 2.703-25.844 4.87"></path>
<path fill="none" stroke="#6c5fbc" style="stroke: var(--color3, #6c5fbc)" stroke-linejoin="round" stroke-linecap="round" stroke-miterlimit="1.5" stroke-width="1.3677" d="M22.162 25.712c-5.536-2.282-14.263-3.067-20.392-3.993"></path>
</symbol>
<symbol id="icon-stars" viewBox="0 0 192 32">
<path fill="#f59e0b" style="fill: var(--color9, #f59e0b)" opacity="0.8" d="M13.916 1.483c0.643-1.977 3.44-1.977 4.083 0l2.296 7.065c0.287 0.884 1.111 1.483 2.041 1.483h7.429c2.079 0 2.944 2.661 1.262 3.883l-6.010 4.367c-0.752 0.547-1.067 1.515-0.78 2.4l2.296 7.065c0.643 1.978-1.621 3.622-3.303 2.4l-6.010-4.367c-0.752-0.547-1.771-0.547-2.523 0l-6.010 4.367c-1.682 1.222-3.945-0.422-3.303-2.4l2.296-7.065c0.287-0.884-0.027-1.853-0.78-2.4l-6.010-4.367c-1.682-1.222-0.818-3.883 1.262-3.883h7.429c0.93 0 1.754-0.599 2.041-1.483l2.296-7.065z"></path>
<path fill="#f59e0b" style="fill: var(--color9, #f59e0b)" opacity="0.8" d="M53.83 1.483c0.642-1.977 3.44-1.977 4.083 0l2.296 7.065c0.287 0.884 1.111 1.483 2.041 1.483h7.429c2.079 0 2.944 2.661 1.262 3.883l-6.010 4.367c-0.752 0.547-1.067 1.515-0.78 2.4l2.296 7.065c0.643 1.978-1.621 3.622-3.303 2.4l-6.010-4.367c-0.752-0.547-1.771-0.547-2.523 0l-6.010 4.367c-1.682 1.222-3.945-0.422-3.303-2.4l2.296-7.065c0.287-0.884-0.027-1.853-0.78-2.4l-6.010-4.367c-1.682-1.222-0.818-3.883 1.262-3.883h7.429c0.93 0 1.754-0.599 2.041-1.483l2.296-7.065z"></path>
<path fill="#f59e0b" style="fill: var(--color9, #f59e0b)" opacity="0.8" d="M93.744 1.483c0.643-1.977 3.44-1.977 4.083 0l2.296 7.065c0.287 0.884 1.112 1.483 2.041 1.483h7.429c2.079 0 2.944 2.661 1.261 3.883l-6.010 4.367c-0.752 0.547-1.067 1.515-0.78 2.4l2.296 7.065c0.642 1.978-1.621 3.622-3.303 2.4l-6.010-4.367c-0.752-0.547-1.771-0.547-2.523 0l-6.010 4.367c-1.682 1.222-3.945-0.422-3.303-2.4l2.296-7.065c0.287-0.884-0.027-1.853-0.78-2.4l-6.010-4.367c-1.682-1.222-0.818-3.883 1.262-3.883h7.429c0.93 0 1.754-0.599 2.041-1.483l2.296-7.065z"></path>
<path fill="#f59e0b" style="fill: var(--color9, #f59e0b)" opacity="0.8" d="M133.662 1.483c0.643-1.977 3.44-1.977 4.083 0l2.296 7.065c0.287 0.884 1.112 1.483 2.041 1.483h7.429c2.079 0 2.944 2.661 1.262 3.883l-6.010 4.367c-0.752 0.547-1.067 1.515-0.78 2.4l2.296 7.065c0.643 1.978-1.621 3.622-3.303 2.4l-6.010-4.367c-0.752-0.547-1.771-0.547-2.523 0l-6.010 4.367c-1.682 1.222-3.945-0.422-3.303-2.4l2.296-7.065c0.287-0.884-0.027-1.853-0.78-2.4l-6.010-4.367c-1.682-1.222-0.818-3.883 1.262-3.883h7.429c0.93 0 1.754-0.599 2.041-1.483l2.296-7.065z"></path>
<path fill="#f59e0b" style="fill: var(--color9, #f59e0b)" opacity="0.8" d="M173.576 1.483c0.643-1.977 3.44-1.977 4.083 0l2.296 7.065c0.287 0.884 1.111 1.483 2.041 1.483h7.429c2.079 0 2.944 2.661 1.262 3.883l-6.010 4.367c-0.752 0.547-1.067 1.515-0.78 2.4l2.296 7.065c0.642 1.978-1.621 3.622-3.303 2.4l-6.010-4.367c-0.752-0.547-1.771-0.547-2.523 0l-6.010 4.367c-1.682 1.222-3.945-0.422-3.303-2.4l2.296-7.065c0.287-0.884-0.027-1.853-0.78-2.4l-6.010-4.367c-1.682-1.222-0.818-3.883 1.262-3.883h7.429c0.93 0 1.754-0.599 2.041-1.483l2.296-7.065z"></path>
</symbol>
<symbol id="icon-trustpilot" viewBox="0 0 127 32">
<path fill="#000" style="fill: var(--color10, #000)" d="M33.372 11.046h12.845v2.391h-5.058v13.48h-2.772v-13.48h-5.036l0.021-2.391zM45.667 15.427h2.37v2.222h0.042c0.085-0.317 0.233-0.614 0.444-0.91s0.466-0.571 0.783-0.804c0.296-0.254 0.635-0.444 1.016-0.593 0.36-0.148 0.741-0.233 1.122-0.233 0.296 0 0.508 0.021 0.614 0.021 0.106 0.021 0.233 0.042 0.339 0.042v2.434c-0.169-0.042-0.36-0.063-0.55-0.085s-0.36-0.042-0.55-0.042c-0.423 0-0.825 0.085-1.206 0.254s-0.698 0.423-0.995 0.741c-0.275 0.339-0.508 0.741-0.677 1.227s-0.254 1.058-0.254 1.693v5.46h-2.539l0.042-11.427zM64.035 26.917h-2.497v-1.608h-0.042c-0.317 0.593-0.783 1.037-1.397 1.397s-1.249 0.529-1.883 0.529c-1.502 0-2.603-0.36-3.28-1.122-0.677-0.741-1.016-1.883-1.016-3.386v-7.301h2.539v7.047c0 1.016 0.19 1.735 0.593 2.137 0.381 0.423 0.931 0.635 1.629 0.635 0.529 0 0.973-0.085 1.333-0.254s0.656-0.381 0.868-0.656c0.233-0.275 0.381-0.614 0.487-0.995s0.148-0.804 0.148-1.249v-6.666h2.539v11.491h-0.021zM68.352 23.235c0.085 0.741 0.36 1.249 0.846 1.566 0.487 0.296 1.079 0.444 1.756 0.444 0.233 0 0.508-0.021 0.804-0.063s0.593-0.106 0.846-0.212c0.275-0.106 0.487-0.254 0.656-0.466s0.254-0.466 0.233-0.783c-0.021-0.317-0.127-0.593-0.36-0.804s-0.508-0.36-0.846-0.508c-0.339-0.127-0.741-0.233-1.185-0.317s-0.889-0.19-1.354-0.296c-0.466-0.106-0.931-0.233-1.375-0.381s-0.825-0.339-1.185-0.614c-0.339-0.254-0.635-0.571-0.825-0.973-0.212-0.402-0.317-0.868-0.317-1.46 0-0.635 0.148-1.143 0.466-1.566 0.296-0.423 0.698-0.762 1.164-1.016s0.995-0.444 1.566-0.55c0.571-0.106 1.122-0.148 1.629-0.148 0.593 0 1.164 0.063 1.693 0.19s1.037 0.317 1.46 0.614c0.444 0.275 0.804 0.656 1.079 1.1 0.296 0.444 0.466 0.995 0.55 1.629h-2.645c-0.127-0.614-0.402-1.016-0.825-1.227-0.444-0.212-0.931-0.317-1.502-0.317-0.169 0-0.402 0.021-0.635 0.042-0.254 0.042-0.466 0.085-0.698 0.169-0.212 0.085-0.402 0.212-0.55 0.36s-0.233 0.36-0.233 0.614c0 0.317 0.106 0.55 0.317 0.741s0.487 0.339 0.846 0.487c0.339 0.127 0.741 0.233 1.185 0.317s0.91 0.19 1.375 0.296c0.466 0.106 0.91 0.233 1.354 0.381s0.846 0.339 1.185 0.614c0.339 0.254 0.635 0.571 0.846 0.952s0.317 0.868 0.317 1.418c0 0.677-0.148 1.249-0.466 1.735-0.317 0.466-0.719 0.868-1.206 1.164s-1.058 0.508-1.651 0.656c-0.614 0.127-1.206 0.212-1.799 0.212-0.719 0-1.397-0.085-2.010-0.254s-1.164-0.423-1.608-0.741c-0.444-0.339-0.804-0.741-1.058-1.249-0.254-0.487-0.402-1.079-0.423-1.778h2.561v0.021h0.021zM76.71 15.427h1.926v-3.47h2.539v3.449h2.285v1.883h-2.285v6.137c0 0.275 0.021 0.487 0.042 0.698 0.021 0.19 0.085 0.36 0.148 0.487 0.085 0.127 0.212 0.233 0.36 0.296 0.169 0.063 0.381 0.106 0.677 0.106 0.169 0 0.36 0 0.529-0.021s0.36-0.042 0.529-0.085v1.968c-0.275 0.042-0.55 0.063-0.825 0.085-0.275 0.042-0.529 0.042-0.825 0.042-0.677 0-1.206-0.063-1.608-0.19s-0.719-0.317-0.952-0.55c-0.233-0.254-0.381-0.55-0.466-0.91s-0.127-0.804-0.148-1.27v-6.772h-1.926v-1.883zM85.238 15.427h2.391v1.566h0.042c0.36-0.677 0.846-1.143 1.481-1.439s1.312-0.444 2.074-0.444c0.91 0 1.693 0.148 2.37 0.487 0.677 0.317 1.227 0.741 1.672 1.312 0.444 0.55 0.783 1.206 0.995 1.947s0.339 1.545 0.339 2.37c0 0.783-0.106 1.524-0.296 2.243-0.212 0.719-0.508 1.375-0.91 1.926s-0.91 0.995-1.545 1.333c-0.635 0.339-1.354 0.508-2.201 0.508-0.36 0-0.741-0.042-1.1-0.106s-0.719-0.169-1.058-0.317c-0.339-0.148-0.656-0.339-0.931-0.571-0.296-0.233-0.529-0.508-0.719-0.804h-0.042v5.735h-2.539v-15.744h-0.021zM94.105 21.183c0-0.508-0.063-1.016-0.212-1.502-0.127-0.487-0.339-0.91-0.614-1.291s-0.614-0.677-0.995-0.91c-0.402-0.233-0.868-0.339-1.375-0.339-1.058 0-1.862 0.36-2.412 1.1-0.529 0.741-0.804 1.735-0.804 2.963 0 0.593 0.063 1.122 0.212 1.608s0.339 0.91 0.635 1.27c0.275 0.36 0.614 0.635 1.016 0.846s0.846 0.317 1.375 0.317c0.593 0 1.058-0.127 1.46-0.36s0.719-0.55 0.995-0.91c0.254-0.381 0.444-0.804 0.55-1.291 0.106-0.508 0.169-0.995 0.169-1.502zM98.57 11.046h2.539v2.391h-2.539v-2.391zM98.57 15.427h2.539v11.491h-2.539v-11.491zM103.373 11.046h2.539v15.871h-2.539v-15.871zM113.658 27.235c-0.909 0-1.735-0.148-2.455-0.466s-1.312-0.719-1.82-1.249c-0.486-0.529-0.867-1.185-1.121-1.926s-0.403-1.566-0.403-2.434c0-0.868 0.127-1.672 0.403-2.412 0.254-0.741 0.635-1.375 1.121-1.926 0.487-0.529 1.1-0.952 1.82-1.249s1.545-0.466 2.455-0.466c0.91 0 1.735 0.148 2.455 0.466 0.719 0.296 1.312 0.719 1.82 1.249 0.487 0.529 0.868 1.185 1.122 1.926s0.402 1.545 0.402 2.412c0 0.889-0.127 1.693-0.402 2.434-0.276 0.741-0.635 1.375-1.122 1.926-0.486 0.529-1.1 0.952-1.82 1.249s-1.524 0.466-2.455 0.466zM113.658 25.224c0.55 0 1.058-0.127 1.461-0.36 0.423-0.233 0.74-0.55 1.016-0.931 0.275-0.381 0.466-0.825 0.593-1.291 0.127-0.487 0.19-0.973 0.19-1.481 0-0.487-0.063-0.973-0.19-1.46s-0.318-0.91-0.593-1.291c-0.276-0.381-0.614-0.677-1.016-0.91-0.423-0.233-0.91-0.36-1.461-0.36s-1.058 0.127-1.46 0.36c-0.423 0.233-0.741 0.55-1.016 0.91-0.276 0.381-0.466 0.804-0.593 1.291s-0.191 0.973-0.191 1.46c0 0.508 0.064 0.995 0.191 1.481s0.317 0.91 0.593 1.291c0.275 0.381 0.613 0.698 1.016 0.931 0.423 0.254 0.909 0.36 1.46 0.36zM120.218 15.427h1.926v-3.47h2.539v3.449h2.285v1.883h-2.285v6.137c0 0.275 0.021 0.487 0.042 0.698 0.021 0.19 0.085 0.36 0.148 0.487 0.085 0.127 0.212 0.233 0.36 0.296 0.169 0.063 0.381 0.106 0.677 0.106 0.169 0 0.359 0 0.529-0.021s0.36-0.042 0.53-0.085v1.968c-0.276 0.042-0.55 0.063-0.826 0.085-0.275 0.042-0.529 0.042-0.825 0.042-0.677 0-1.207-0.063-1.608-0.19-0.403-0.127-0.719-0.317-0.953-0.55-0.232-0.254-0.381-0.55-0.466-0.91s-0.127-0.804-0.148-1.27v-6.772h-1.926v-1.883z"></path>
<path fill="#00b67a" style="fill: var(--color11, #00b67a)" d="M30.409 11.046h-11.618l-3.576-11.046-3.597 11.046-11.618-0.021 9.396 6.835-3.597 11.046 9.396-6.835 9.396 6.835-3.576-11.046 9.396-6.814z"></path>
<path fill="#005128" style="fill: var(--color12, #005128)" d="M21.818 20.357l-0.804-2.497-5.798 4.211 6.602-1.714z"></path>
</symbol>
<symbol id="icon-hero-bottom" viewBox="0 0 34 32">
<path fill="none" stroke="#685bb8" style="stroke: var(--color13, #685bb8)" stroke-linejoin="round" stroke-linecap="round" stroke-miterlimit="1.5" stroke-width="2.2919" d="M23.643 26.914c2.503-5.595 4.359-11.4 6.603-17.086"></path>
<path fill="none" stroke="#685bb8" style="stroke: var(--color13, #685bb8)" stroke-linejoin="round" stroke-linecap="round" stroke-miterlimit="1.5" stroke-width="2.2919" d="M6.857 30.271c6.835-7.314 12.977-15.487 18.622-23.735"></path>
<path fill="none" stroke="#685bb8" style="stroke: var(--color13, #685bb8)" stroke-linejoin="round" stroke-linecap="round" stroke-miterlimit="1.5" stroke-width="2.2919" d="M1.414 13.696c6.503-2.214 14.627-8.133 20.616-11.966"></path>
</symbol>
<symbol id="icon-hero-top" viewBox="0 0 48 32">
<path fill="none" stroke="#685bb8" style="stroke: var(--color13, #685bb8)" stroke-linejoin="round" stroke-linecap="round" stroke-miterlimit="1.5" stroke-width="3.0286" d="M3.469 14.724c4.119-4.206 9.169-4.907 14.291-5.379 6.393-0.589 12.899-0.819 17.847-7.060"></path>
<path fill="none" stroke="#685bb8" style="stroke: var(--color13, #685bb8)" stroke-linejoin="round" stroke-linecap="round" stroke-miterlimit="1.5" stroke-width="3.0286" d="M1.87 26.547c3.754-5.341 9.213-8.497 15.661-9.208 3.374-0.372 6.795-0.002 10.148-0.639 7.553-1.436 14.57-6.021 17.86-13.112"></path>
<path fill="none" stroke="#685bb8" style="stroke: var(--color13, #685bb8)" stroke-linejoin="round" stroke-linecap="round" stroke-miterlimit="1.5" stroke-width="3.0286" d="M34.882 21.965c-2.501 1.604-5.215 2.825-8.195 3.175-5.935 0.697-12.152-0.228-16.659 4.574"></path>
</symbol>
<symbol id="icon-logo" viewBox="0 0 83 32">
<path fill="#6c5fbc" style="fill: var(--color3, #6c5fbc)" d="M7.921 3.705h21.082c2.864 0 5.187 2.322 5.187 5.187v17.412c0 2.864-2.322 5.187-5.187 5.187h-21.082c-2.864 0-5.187-2.322-5.187-5.187v-17.412c0-2.864 2.322-5.187 5.187-5.187z"></path>
<path fill="#dbd9ee" style="fill: var(--color8, #dbd9ee); stroke: var(--color3, #6c5fbc)" stroke="#6c5fbc" stroke-linejoin="miter" stroke-linecap="butt" stroke-miterlimit="4" stroke-width="1.4995" d="M5.187 0.75h21.082c2.45 0 4.437 1.986 4.437 4.437v17.412c0 2.45-1.986 4.437-4.437 4.437h-21.082c-2.45 0-4.437-1.986-4.437-4.437v-17.412c0-2.45 1.986-4.437 4.437-4.437z"></path>
<path fill="none" stroke="#6c5fbc" style="stroke: var(--color3, #6c5fbc)" stroke-linejoin="round" stroke-linecap="round" stroke-miterlimit="4" stroke-width="1.5511" d="M24.278 8.969l-17.043-0.075"></path>
<path fill="none" stroke="#6c5fbc" style="stroke: var(--color3, #6c5fbc)" stroke-linejoin="round" stroke-linecap="round" stroke-miterlimit="4" stroke-width="1.5511" d="M24.268 12.381l-3.79-0.017c-1.568-0.007-2.836-1.541-2.83-3.425s1.283-3.407 2.851-3.4l3.79 0.017"></path>
<path fill="none" stroke="#6c5fbc" style="stroke: var(--color3, #6c5fbc)" stroke-linejoin="round" stroke-linecap="round" stroke-miterlimit="4" stroke-width="1.5511" d="M12.92 19.886l-4.952-0.055c-0.406-0.002-0.746-0.402-0.753-0.89l-0.033-1.285c-0.008-0.51 0.335-0.94 0.759-0.938l4.897 0.055 0.083 3.114z"></path>
<path fill="none" stroke="#6c5fbc" style="stroke: var(--color3, #6c5fbc)" stroke-linejoin="round" stroke-linecap="round" stroke-miterlimit="4" stroke-width="1.5511" d="M20.698 21.738l-7-0.086c-0.406-0.002-0.746-0.402-0.754-0.89l-0.089-4 11.371 0.139 0.008 0.51c0.057 2.416-1.535 4.359-3.536 4.328z"></path>
<path fill="#6c5fbc" style="fill: var(--color3, #6c5fbc)" d="M51.578 16.108c0 0.315-0.021 0.599-0.063 0.851h-6.382c0.053 0.63 0.273 1.124 0.662 1.481s0.867 0.536 1.434 0.536c0.819 0 1.403-0.352 1.749-1.056h2.38c-0.252 0.84-0.735 1.534-1.45 2.080-0.714 0.536-1.592 0.804-2.632 0.804-0.84 0-1.597-0.184-2.269-0.552-0.662-0.378-1.182-0.909-1.56-1.592-0.368-0.683-0.552-1.471-0.552-2.364 0-0.903 0.184-1.697 0.552-2.38s0.882-1.208 1.544-1.576c0.662-0.368 1.424-0.552 2.285-0.552 0.83 0 1.571 0.179 2.222 0.536 0.662 0.357 1.171 0.867 1.529 1.529 0.368 0.651 0.552 1.402 0.552 2.253zM49.293 15.478c-0.011-0.567-0.215-1.019-0.615-1.355-0.399-0.347-0.888-0.52-1.466-0.52-0.546 0-1.009 0.168-1.387 0.504-0.368 0.326-0.594 0.783-0.678 1.371h4.145zM52.621 16.266c0-0.883 0.173-1.665 0.52-2.348 0.357-0.683 0.835-1.208 1.434-1.576 0.609-0.368 1.287-0.552 2.033-0.552 0.651 0 1.219 0.131 1.702 0.394 0.494 0.263 0.888 0.594 1.182 0.993v-1.245h2.222v8.73h-2.222v-1.276c-0.284 0.41-0.678 0.751-1.182 1.024-0.494 0.263-1.066 0.394-1.718 0.394-0.735 0-1.408-0.189-2.017-0.567-0.599-0.378-1.077-0.909-1.434-1.592-0.347-0.693-0.52-1.487-0.52-2.38zM59.492 16.298c0-0.536-0.105-0.993-0.315-1.371-0.21-0.389-0.494-0.683-0.851-0.882-0.357-0.21-0.741-0.315-1.15-0.315s-0.788 0.1-1.135 0.299-0.63 0.494-0.851 0.883c-0.21 0.378-0.315 0.83-0.315 1.355s0.105 0.988 0.315 1.387c0.221 0.389 0.504 0.688 0.851 0.898 0.357 0.21 0.735 0.315 1.135 0.315 0.41 0 0.793-0.1 1.15-0.299 0.357-0.21 0.641-0.504 0.851-0.882 0.21-0.389 0.315-0.851 0.315-1.387zM66.437 13.745v4.223c0 0.294 0.068 0.509 0.205 0.646 0.147 0.126 0.389 0.189 0.725 0.189h1.024v1.86h-1.387c-1.859 0-2.789-0.904-2.789-2.71v-4.208h-1.040v-1.812h1.040v-2.159h2.222v2.159h1.954v1.812h-1.954zM72.184 9.001v11.661h-2.206v-11.661h2.206zM82.716 11.932l-5.405 12.859h-2.348l1.891-4.349-3.499-8.51h2.474l2.253 6.099 2.285-6.099h2.348z"></path>
</symbol>
<symbol id="icon-facebook" viewBox="0 0 32 32">
<path d="M19 6h5v-6h-5c-3.86 0-7 3.14-7 7v3h-4v6h4v16h6v-16h5l1-6h-6v-3c0-0.542 0.458-1 1-1z"></path>
</symbol>
<symbol id="icon-instagram" viewBox="0 0 32 32">
<path d="M16 2.881c4.275 0 4.781 0.019 6.462 0.094 1.563 0.069 2.406 0.331 2.969 0.55 0.744 0.288 1.281 0.638 1.837 1.194 0.563 0.563 0.906 1.094 1.2 1.838 0.219 0.563 0.481 1.412 0.55 2.969 0.075 1.688 0.094 2.194 0.094 6.463s-0.019 4.781-0.094 6.463c-0.069 1.563-0.331 2.406-0.55 2.969-0.288 0.744-0.637 1.281-1.194 1.837-0.563 0.563-1.094 0.906-1.837 1.2-0.563 0.219-1.413 0.481-2.969 0.55-1.688 0.075-2.194 0.094-6.463 0.094s-4.781-0.019-6.463-0.094c-1.563-0.069-2.406-0.331-2.969-0.55-0.744-0.288-1.281-0.637-1.838-1.194-0.563-0.563-0.906-1.094-1.2-1.837-0.219-0.563-0.481-1.413-0.55-2.969-0.075-1.688-0.094-2.194-0.094-6.463s0.019-4.781 0.094-6.463c0.069-1.563 0.331-2.406 0.55-2.969 0.288-0.744 0.638-1.281 1.194-1.838 0.563-0.563 1.094-0.906 1.838-1.2 0.563-0.219 1.412-0.481 2.969-0.55 1.681-0.075 2.188-0.094 6.463-0.094zM16 0c-4.344 0-4.887 0.019-6.594 0.094-1.7 0.075-2.869 0.35-3.881 0.744-1.056 0.412-1.95 0.956-2.837 1.85-0.894 0.888-1.438 1.781-1.85 2.831-0.394 1.019-0.669 2.181-0.744 3.881-0.075 1.713-0.094 2.256-0.094 6.6s0.019 4.887 0.094 6.594c0.075 1.7 0.35 2.869 0.744 3.881 0.413 1.056 0.956 1.95 1.85 2.837 0.887 0.887 1.781 1.438 2.831 1.844 1.019 0.394 2.181 0.669 3.881 0.744 1.706 0.075 2.25 0.094 6.594 0.094s4.888-0.019 6.594-0.094c1.7-0.075 2.869-0.35 3.881-0.744 1.050-0.406 1.944-0.956 2.831-1.844s1.438-1.781 1.844-2.831c0.394-1.019 0.669-2.181 0.744-3.881 0.075-1.706 0.094-2.25 0.094-6.594s-0.019-4.887-0.094-6.594c-0.075-1.7-0.35-2.869-0.744-3.881-0.394-1.063-0.938-1.956-1.831-2.844-0.887-0.887-1.781-1.438-2.831-1.844-1.019-0.394-2.181-0.669-3.881-0.744-1.712-0.081-2.256-0.1-6.6-0.1v0z"></path>
<path d="M16 7.781c-4.537 0-8.219 3.681-8.219 8.219s3.681 8.219 8.219 8.219 8.219-3.681 8.219-8.219c0-4.537-3.681-8.219-8.219-8.219zM16 21.331c-2.944 0-5.331-2.387-5.331-5.331s2.387-5.331 5.331-5.331c2.944 0 5.331 2.387 5.331 5.331s-2.387 5.331-5.331 5.331z"></path>
<path d="M26.462 7.456c0 1.060-0.859 1.919-1.919 1.919s-1.919-0.859-1.919-1.919c0-1.060 0.859-1.919 1.919-1.919s1.919 0.859 1.919 1.919z"></path>
</symbol>
<symbol id="icon-twitter" viewBox="0 0 32 32">
<path d="M32 7.075c-1.175 0.525-2.444 0.875-3.769 1.031 1.356-0.813 2.394-2.1 2.887-3.631-1.269 0.75-2.675 1.3-4.169 1.594-1.2-1.275-2.906-2.069-4.794-2.069-3.625 0-6.563 2.938-6.563 6.563 0 0.512 0.056 1.012 0.169 1.494-5.456-0.275-10.294-2.888-13.531-6.862-0.563 0.969-0.887 2.1-0.887 3.3 0 2.275 1.156 4.287 2.919 5.463-1.075-0.031-2.087-0.331-2.975-0.819 0 0.025 0 0.056 0 0.081 0 3.181 2.263 5.838 5.269 6.437-0.55 0.15-1.131 0.231-1.731 0.231-0.425 0-0.831-0.044-1.237-0.119 0.838 2.606 3.263 4.506 6.131 4.563-2.25 1.762-5.075 2.813-8.156 2.813-0.531 0-1.050-0.031-1.569-0.094 2.913 1.869 6.362 2.95 10.069 2.95 12.075 0 18.681-10.006 18.681-18.681 0-0.287-0.006-0.569-0.019-0.85 1.281-0.919 2.394-2.075 3.275-3.394z"></path>
</symbol>
<symbol id="icon-linkedin" viewBox="0 0 32 32">
<path d="M12 12h5.535v2.837h0.079c0.77-1.381 2.655-2.837 5.464-2.837 5.842 0 6.922 3.637 6.922 8.367v9.633h-5.769v-8.54c0-2.037-0.042-4.657-3.001-4.657-3.005 0-3.463 2.218-3.463 4.509v8.688h-5.767v-18z"></path>
<path d="M2 12h6v18h-6v-18z"></path>
<path d="M8 7c0 1.657-1.343 3-3 3s-3-1.343-3-3c0-1.657 1.343-3 3-3s3 1.343 3 3z"></path>
</symbol>
</defs>
</svg>
