<svg aria-hidden="true" style="position: absolute; width: 0; height: 0; overflow: hidden;" version="1.1" xmlns="http://www.w3.org/2000/svg" xmlns:xlink="http://www.w3.org/1999/xlink">
<defs>
<symbol id="icon-arrow-right" viewBox="0 0 33 32">
<path fill="none" stroke="#fff" style="stroke: var(--color1, #fff)" stroke-linejoin="round" stroke-linecap="round" stroke-miterlimit="4" stroke-width="2.5803" d="M7.491 15.482h18.062"></path>
<path fill="none" stroke="#fff" style="stroke: var(--color1, #fff)" stroke-linejoin="round" stroke-linecap="round" stroke-miterlimit="4" stroke-width="2.5803" d="M16.521 6.451l9.031 9.031-9.031 9.031"></path>
</symbol>
<symbol id="icon-customer" viewBox="0 0 42 32">
<path fill="#dadada" style="fill: var(--color1, #dadada)" d="M26.167 31.467c-2.208-4.269-3.312-8.907-3.312-13.912 0-5.079 1.343-9.275 4.030-12.587s6.864-4.969 12.532-4.969v6.956c-1.987 0-3.441 0.442-4.361 1.325s-1.38 2.576-1.38 5.079v1.104h8.060v17.003h-15.568zM3.312 31.468c-2.208-4.269-3.312-8.907-3.312-13.912 0-5.079 1.343-9.275 4.030-12.587s6.864-4.969 12.532-4.969v6.956c-1.987 0-3.441 0.442-4.361 1.325s-1.38 2.576-1.38 5.079v1.104h8.060v17.003h-15.568z"></path>
</symbol>
<symbol id="icon-divider-1" viewBox="0 0 1309 32">
<path fill="#fbad18" style="fill: var(--color2, #fbad18)" opacity="0.2" d="M16.781 1.712h1276.574c8.327 0 15.078 6.75 15.078 15.078v0c0 8.327-6.751 15.078-15.078 15.078h-1276.574c-8.327 0-15.078-6.75-15.078-15.078v-0c0-8.327 6.751-15.078 15.078-15.078z"></path>
<path fill="#fbad18" style="fill: var(--color2, #fbad18)" d="M16.781 1.712h753.883c8.327 0 15.078 6.75 15.078 15.078v0c0 8.327-6.75 15.078-15.078 15.078h-753.883c-8.327 0-15.078-6.75-15.078-15.078v-0c0-8.327 6.751-15.078 15.078-15.078z"></path>
</symbol>
<symbol id="icon-divider" viewBox="0 0 1309 32">
<path fill="#6c5fbc" style="fill: var(--color3, #6c5fbc)" opacity="0.2" d="M16.781 1.525h1276.574c8.327 0 15.078 6.75 15.078 15.078v0c0 8.327-6.751 15.078-15.078 15.078h-1276.574c-8.327 0-15.078-6.75-15.078-15.078v-0c0-8.327 6.751-15.078 15.078-15.078z"></path>
<path fill="#6c5fbc" style="fill: var(--color3, #6c5fbc)" d="M16.781 1.525h919.736c8.327 0 15.078 6.75 15.078 15.078v0c0 8.327-6.75 15.078-15.078 15.078h-919.736c-8.327 0-15.078-6.75-15.078-15.078v-0c0-8.327 6.751-15.078 15.078-15.078z"></path>
</symbol>
<symbol id="icon-money" viewBox="0 0 32 32">
<path fill="#f2fdf6" style="fill: var(--color4, #f2fdf6)" d="M16.101 0.262c8.708 0 15.767 7.059 15.767 15.767s-7.059 15.767-15.767 15.767c-8.708 0-15.767-7.059-15.767-15.767s7.059-15.767 15.767-15.767z"></path>
<path fill="none" stroke="#22c55e" style="stroke: var(--color5, #22c55e)" stroke-linejoin="round" stroke-linecap="round" stroke-miterlimit="10" stroke-width="0.9855" d="M19.386 22.107h-6.57c-1.971 0-3.285-0.985-3.285-3.285v-4.599c0-2.299 1.314-3.285 3.285-3.285h6.57c1.971 0 3.285 0.985 3.285 3.285v4.599c0 2.299-1.314 3.285-3.285 3.285z"></path>
<path fill="none" stroke="#22c55e" style="stroke: var(--color5, #22c55e)" stroke-linejoin="round" stroke-linecap="round" stroke-miterlimit="10" stroke-width="0.9855" d="M16.101 18.493c1.088 0 1.971-0.882 1.971-1.971s-0.882-1.971-1.971-1.971c-1.088 0-1.971 0.882-1.971 1.971s0.882 1.971 1.971 1.971z"></path>
<path fill="none" stroke="#22c55e" style="stroke: var(--color5, #22c55e)" stroke-linejoin="round" stroke-linecap="round" stroke-miterlimit="10" stroke-width="0.9855" d="M11.831 14.88v3.285"></path>
<path fill="none" stroke="#22c55e" style="stroke: var(--color5, #22c55e)" stroke-linejoin="round" stroke-linecap="round" stroke-miterlimit="10" stroke-width="0.9855" d="M20.371 14.88v3.285"></path>
</symbol>
<symbol id="icon-expense" viewBox="0 0 32 32">
<path fill="#f4f0ff" style="fill: var(--color6, #f4f0ff)" d="M16.101 0.225c8.708 0 15.767 7.059 15.767 15.767s-7.059 15.767-15.767 15.767c-8.708 0-15.767-7.059-15.767-15.767s7.059-15.767 15.767-15.767z"></path>
<path fill="none" stroke="#936dff" style="stroke: var(--color7, #936dff)" stroke-linejoin="round" stroke-linecap="round" stroke-miterlimit="4" stroke-width="0.9855" d="M16.535 9.271l-0.020 0.046-1.905 4.421h-1.872c-0.447 0-0.874 0.092-1.261 0.256l1.15-2.746 0.026-0.066 0.046-0.105c0.013-0.039 0.026-0.079 0.046-0.112 0.861-1.991 1.833-2.444 3.791-1.695z"></path>
<path fill="none" stroke="#936dff" style="stroke: var(--color7, #936dff)" stroke-linejoin="round" stroke-linecap="round" stroke-miterlimit="4" stroke-width="0.9855" d="M20.076 13.869c-0.296-0.092-0.611-0.131-0.926-0.131h-4.54l1.925-4.467c0.099 0.033 0.191 0.079 0.289 0.118l1.452 0.611c0.808 0.335 1.373 0.683 1.715 1.104 0.066 0.079 0.118 0.151 0.164 0.236 0.059 0.092 0.105 0.184 0.131 0.283 0.026 0.059 0.046 0.118 0.059 0.171 0.177 0.552 0.072 1.229-0.269 2.076z"></path>
<path fill="none" stroke="#936dff" style="stroke: var(--color7, #936dff)" stroke-linejoin="round" stroke-linecap="round" stroke-miterlimit="4" stroke-width="0.9855" d="M22.356 16.944v1.281c0 0.131-0.007 0.263-0.013 0.394-0.125 2.293-1.406 3.449-3.837 3.449h-5.124c-0.158 0-0.315-0.013-0.466-0.033-2.089-0.138-3.206-1.255-3.344-3.344-0.020-0.151-0.033-0.309-0.033-0.466v-1.281c0-1.321 0.802-2.457 1.945-2.95 0.394-0.164 0.815-0.256 1.261-0.256h6.412c0.322 0 0.637 0.046 0.926 0.131 1.307 0.401 2.273 1.623 2.273 3.075z"></path>
<path fill="none" stroke="#936dff" style="stroke: var(--color7, #936dff)" stroke-linejoin="round" stroke-linecap="round" stroke-miterlimit="4" stroke-width="0.9855" d="M12.626 11.248l-1.15 2.746c-1.143 0.493-1.945 1.629-1.945 2.95v-1.925c0-1.866 1.327-3.423 3.094-3.771z"></path>
<path fill="none" stroke="#936dff" style="stroke: var(--color7, #936dff)" stroke-linejoin="round" stroke-linecap="round" stroke-miterlimit="4" stroke-width="0.9855" d="M22.355 15.019v1.925c0-1.445-0.959-2.674-2.273-3.068 0.342-0.854 0.44-1.524 0.276-2.083-0.013-0.059-0.033-0.118-0.059-0.171 1.222 0.631 2.056 1.925 2.056 3.397z"></path>
</symbol>
<symbol id="icon-heart" viewBox="0 0 39 32">
<path d="M1.043 11.222c0-5.705 5.005-10.098 10.88-10.098 3.028 0 5.693 1.42 7.606 3.257 1.912-1.837 4.577-3.257 7.606-3.257 5.875 0 10.88 4.393 10.88 10.098 0 3.908-1.667 7.345-3.976 10.25-2.305 2.9-5.32 5.362-8.207 7.362-1.103 0.764-2.218 1.468-3.239 1.989-0.959 0.488-2.061 0.935-3.064 0.935s-2.105-0.447-3.064-0.935c-1.021-0.52-2.136-1.225-3.239-1.989-2.887-2-5.902-4.461-8.207-7.362-2.309-2.905-3.976-6.342-3.976-10.25zM11.923 4.293c-4.393 0-7.711 3.231-7.711 6.929 0 2.965 1.259 5.726 3.287 8.278 2.033 2.558 4.768 4.814 7.531 6.728 1.046 0.724 2.030 1.341 2.873 1.77 0.905 0.461 1.429 0.59 1.626 0.59s0.721-0.13 1.626-0.59c0.842-0.429 1.827-1.045 2.873-1.77 2.763-1.914 5.498-4.171 7.531-6.728 2.029-2.553 3.288-5.313 3.288-8.278 0-3.699-3.319-6.929-7.711-6.929-2.523 0-4.879 1.507-6.349 3.42-0.3 0.39-0.764 0.619-1.256 0.619s-0.956-0.229-1.256-0.619c-1.471-1.913-3.827-3.42-6.349-3.42z"></path>
</symbol>
<symbol id="icon-bookmark" viewBox="0 0 32 32">
<path fill="#dbd9ee" style="fill: var(--color8, #dbd9ee)" d="M31.428 15.807c0 8.639-7.004 15.643-15.643 15.643s-15.643-7.004-15.643-15.643c0-8.639 7.004-15.643 15.643-15.643s15.643 7.004 15.643 15.643z"></path>
<path fill="#6c5fbc" style="fill: var(--color3, #6c5fbc)" d="M19.213 8.495c-2.265-0.38-4.589-0.38-6.853 0-0.827 0.139-1.486 0.774-1.652 1.597-0.76 3.773-0.801 7.655-0.122 11.443l0.277 1.542c0.085 0.476 0.665 0.666 1.015 0.333l3.338-3.171c0.32-0.304 0.822-0.304 1.143 0l3.338 3.171c0.35 0.333 0.93 0.143 1.015-0.333l0.277-1.542c0.679-3.788 0.638-7.671-0.122-11.443-0.166-0.824-0.825-1.459-1.652-1.597z"></path>
</symbol>
<symbol id="icon-star" viewBox="0 0 31 32">
<path fill="#6c5fbc" style="fill: var(--color3, #6c5fbc)" d="M18.962 25.703c2.020 1.105 3.796-0.234 3.409-2.579l-0.693-4.21 2.938-2.981c1.634-1.658 0.959-3.831-1.302-4.173l-4.060-0.614-1.807-3.811c-1.012-2.135-3.209-2.158-4.223-0.019l-1.816 3.83-4.060 0.614c-2.258 0.342-2.938 2.512-1.302 4.173l2.938 2.981-0.694 4.21c-0.386 2.341 1.387 3.686 3.409 2.579l3.631-1.988 3.631 1.988z"></path>
</symbol>
<symbol id="icon-arrow" viewBox="0 0 89 32">
<path fill="#6c5fbc" style="fill: var(--color3, #6c5fbc)" d="M88.399 3.224c0.119-0.365-0.081-0.757-0.446-0.876s-0.757 0.081-0.876 0.446l1.322 0.43zM70.406 20.008v0zM49.801 8.519v0zM55.973 1.052v0zM62.524 6.499v0zM45.045 24.956v0zM26.277 13.117v0zM30.741 7.364v0zM17.22 31.091v0zM0.72 20.836l0.158-0.677c-0.247-0.058-0.506 0.024-0.675 0.213s-0.222 0.455-0.139 0.694l0.656-0.23zM6.805 22.967c0.374 0.087 0.748-0.145 0.835-0.519s-0.145-0.748-0.519-0.835l-0.315 1.354zM2.29 27.418c0.127 0.362 0.524 0.553 0.886 0.426s0.553-0.524 0.426-0.886l-1.312 0.46zM87.738 3.009c-0.661-0.215-0.661-0.215-0.661-0.216s0-0 0 0 0 0.001-0.001 0.001-0.001 0.003-0.002 0.006-0.005 0.016-0.009 0.029c-0.009 0.026-0.023 0.066-0.041 0.118-0.037 0.105-0.093 0.262-0.171 0.464-0.154 0.403-0.388 0.985-0.708 1.691-0.641 1.413-1.621 3.315-2.981 5.274-2.728 3.933-6.917 8.006-12.867 8.945l0.217 1.373c6.487-1.023 10.964-5.449 13.792-9.525 1.419-2.045 2.439-4.025 3.106-5.493 0.333-0.735 0.578-1.343 0.741-1.77 0.081-0.213 0.142-0.382 0.183-0.498 0.020-0.058 0.036-0.103 0.046-0.134 0.005-0.016 0.009-0.028 0.012-0.036 0.002-0.004 0.003-0.008 0.004-0.010 0.001-0.001 0.001-0.002 0.001-0.003s0-0.001 0-0.001 0.001-0.001-0.66-0.216zM70.297 19.321c-4.646 0.733-9.63-0.123-13.441-2.117-3.821-1.999-6.332-5.059-6.36-8.69l-1.39 0.011c0.034 4.341 3.035 7.781 7.106 9.911 4.080 2.135 9.367 3.037 14.302 2.259l-0.217-1.373zM50.496 8.513c-0.008-1.064 0.432-2.723 1.381-4.145 0.94-1.408 2.315-2.496 4.144-2.623l-0.096-1.387c-2.387 0.165-4.107 1.594-5.204 3.238-1.088 1.631-1.626 3.559-1.615 4.928l1.39-0.011zM56.021 1.745c1.73-0.12 2.968 0.563 3.893 1.551 0.946 1.010 1.559 2.336 1.957 3.439l1.307-0.472c-0.422-1.169-1.112-2.703-2.249-3.917-1.158-1.236-2.785-2.141-5.004-1.988l0.096 1.387zM61.871 6.735c1.587 4.395-0.105 8.454-3.519 11.622-3.425 3.179-8.507 5.369-13.383 5.907l0.153 1.382c5.141-0.568 10.51-2.867 14.177-6.27 3.678-3.414 5.716-8.030 3.88-13.114l-1.307 0.472zM44.968 24.265c-4.182 0.462-8.601-0.317-12.012-2.234-3.396-1.909-5.755-4.917-5.986-8.954l-1.388 0.079c0.264 4.614 2.983 8.001 6.693 10.087 3.696 2.078 8.414 2.893 12.845 2.404l-0.153-1.382zM26.971 13.077c-0.073-1.266 0.232-2.337 0.864-3.173 0.633-0.838 1.641-1.5 3.078-1.866l-0.342-1.347c-1.679 0.427-2.984 1.237-3.845 2.375-0.861 1.14-1.231 2.549-1.143 4.091l1.388-0.079zM30.913 8.038c1.314-0.334 2.377-0.067 3.275 0.579 0.926 0.666 1.708 1.762 2.347 3.126l1.259-0.589c-0.69-1.474-1.6-2.806-2.794-3.665-1.222-0.88-2.706-1.235-4.429-0.797l0.342 1.347zM36.534 11.742c2.137 4.568-0.123 9.355-4.376 13.036-4.243 3.672-10.219 5.992-14.882 5.62l-0.11 1.386c5.123 0.408 11.453-2.105 15.902-5.955 4.439-3.841 7.258-9.265 4.726-14.676l-1.259 0.589zM17.275 30.398c-3.619-0.288-7.604-2.733-10.756-5.211-1.559-1.226-2.884-2.434-3.819-3.335-0.467-0.451-0.836-0.824-1.087-1.084-0.126-0.13-0.222-0.231-0.286-0.3-0.032-0.034-0.056-0.060-0.072-0.077-0.008-0.009-0.014-0.015-0.018-0.019-0.002-0.002-0.003-0.003-0.004-0.004s-0.001-0.001-0.001-0.001-0-0-0-0 0 0-0.513 0.469-0.513 0.469-0.513 0.469 0 0 0.001 0.001 0.001 0.001 0.002 0.002 0.003 0.003 0.006 0.006 0.012 0.013 0.021 0.022c0.018 0.019 0.044 0.048 0.079 0.084 0.069 0.073 0.17 0.179 0.3 0.314 0.261 0.27 0.641 0.655 1.121 1.118 0.959 0.925 2.319 2.166 3.925 3.428 3.178 2.497 7.444 5.18 11.505 5.503l0.11-1.386zM0.562 21.513l6.243 1.454 0.315-1.354-6.243-1.454-0.315 1.354zM0.064 21.066l2.226 6.352 1.312-0.46-2.226-6.352-1.312 0.46z"></path>
</symbol>
<symbol id="icon-Illustration-01-1" viewBox="0 0 29 32">
<path fill="none" stroke="#6c5fbc" style="stroke: var(--color3, #6c5fbc)" stroke-linejoin="round" stroke-linecap="round" stroke-miterlimit="1.5" stroke-width="1.3677" d="M15.175 4.277c-4.855 2.232-9.406 4.972-14.143 7.413"></path>
<path fill="none" stroke="#6c5fbc" style="stroke: var(--color3, #6c5fbc)" stroke-linejoin="round" stroke-linecap="round" stroke-miterlimit="1.5" stroke-width="1.3677" d="M28.11 11.716c-8.683 0.871-17.405 2.703-25.844 4.87"></path>
<path fill="none" stroke="#6c5fbc" style="stroke: var(--color3, #6c5fbc)" stroke-linejoin="round" stroke-linecap="round" stroke-miterlimit="1.5" stroke-width="1.3677" d="M22.162 25.712c-5.536-2.282-14.263-3.067-20.392-3.993"></path>
</symbol>
<symbol id="icon-stars" viewBox="0 0 192 32">
<path fill="#f59e0b" style="fill: var(--color9, #f59e0b)" opacity="0.8" d="M13.916 1.483c0.643-1.977 3.44-1.977 4.083 0l2.296 7.065c0.287 0.884 1.111 1.483 2.041 1.483h7.429c2.079 0 2.944 2.661 1.262 3.883l-6.010 4.367c-0.752 0.547-1.067 1.515-0.78 2.4l2.296 7.065c0.643 1.978-1.621 3.622-3.303 2.4l-6.010-4.367c-0.752-0.547-1.771-0.547-2.523 0l-6.010 4.367c-1.682 1.222-3.945-0.422-3.303-2.4l2.296-7.065c0.287-0.884-0.027-1.853-0.78-2.4l-6.010-4.367c-1.682-1.222-0.818-3.883 1.262-3.883h7.429c0.93 0 1.754-0.599 2.041-1.483l2.296-7.065z"></path>
<path fill="#f59e0b" style="fill: var(--color9, #f59e0b)" opacity="0.8" d="M53.83 1.483c0.642-1.977 3.44-1.977 4.083 0l2.296 7.065c0.287 0.884 1.111 1.483 2.041 1.483h7.429c2.079 0 2.944 2.661 1.262 3.883l-6.010 4.367c-0.752 0.547-1.067 1.515-0.78 2.4l2.296 7.065c0.643 1.978-1.621 3.622-3.303 2.4l-6.010-4.367c-0.752-0.547-1.771-0.547-2.523 0l-6.010 4.367c-1.682 1.222-3.945-0.422-3.303-2.4l2.296-7.065c0.287-0.884-0.027-1.853-0.78-2.4l-6.010-4.367c-1.682-1.222-0.818-3.883 1.262-3.883h7.429c0.93 0 1.754-0.599 2.041-1.483l2.296-7.065z"></path>
<path fill="#f59e0b" style="fill: var(--color9, #f59e0b)" opacity="0.8" d="M93.744 1.483c0.643-1.977 3.44-1.977 4.083 0l2.296 7.065c0.287 0.884 1.112 1.483 2.041 1.483h7.429c2.079 0 2.944 2.661 1.261 3.883l-6.010 4.367c-0.752 0.547-1.067 1.515-0.78 2.4l2.296 7.065c0.642 1.978-1.621 3.622-3.303 2.4l-6.010-4.367c-0.752-0.547-1.771-0.547-2.523 0l-6.010 4.367c-1.682 1.222-3.945-0.422-3.303-2.4l2.296-7.065c0.287-0.884-0.027-1.853-0.78-2.4l-6.010-4.367c-1.682-1.222-0.818-3.883 1.262-3.883h7.429c0.93 0 1.754-0.599 2.041-1.483l2.296-7.065z"></path>
<path fill="#f59e0b" style="fill: var(--color9, #f59e0b)" opacity="0.8" d="M133.662 1.483c0.643-1.977 3.44-1.977 4.083 0l2.296 7.065c0.287 0.884 1.112 1.483 2.041 1.483h7.429c2.079 0 2.944 2.661 1.262 3.883l-6.010 4.367c-0.752 0.547-1.067 1.515-0.78 2.4l2.296 7.065c0.643 1.978-1.621 3.622-3.303 2.4l-6.010-4.367c-0.752-0.547-1.771-0.547-2.523 0l-6.010 4.367c-1.682 1.222-3.945-0.422-3.303-2.4l2.296-7.065c0.287-0.884-0.027-1.853-0.78-2.4l-6.010-4.367c-1.682-1.222-0.818-3.883 1.262-3.883h7.429c0.93 0 1.754-0.599 2.041-1.483l2.296-7.065z"></path>
<path fill="#f59e0b" style="fill: var(--color9, #f59e0b)" opacity="0.8" d="M173.576 1.483c0.643-1.977 3.44-1.977 4.083 0l2.296 7.065c0.287 0.884 1.111 1.483 2.041 1.483h7.429c2.079 0 2.944 2.661 1.262 3.883l-6.010 4.367c-0.752 0.547-1.067 1.515-0.78 2.4l2.296 7.065c0.642 1.978-1.621 3.622-3.303 2.4l-6.010-4.367c-0.752-0.547-1.771-0.547-2.523 0l-6.010 4.367c-1.682 1.222-3.945-0.422-3.303-2.4l2.296-7.065c0.287-0.884-0.027-1.853-0.78-2.4l-6.010-4.367c-1.682-1.222-0.818-3.883 1.262-3.883h7.429c0.93 0 1.754-0.599 2.041-1.483l2.296-7.065z"></path>
</symbol>
<symbol id="icon-trustpilot" viewBox="0 0 127 32">
<path fill="#000" style="fill: var(--color10, #000)" d="M33.372 11.046h12.845v2.391h-5.058v13.48h-2.772v-13.48h-5.036l0.021-2.391zM45.667 15.427h2.37v2.222h0.042c0.085-0.317 0.233-0.614 0.444-0.91s0.466-0.571 0.783-0.804c0.296-0.254 0.635-0.444 1.016-0.593 0.36-0.148 0.741-0.233 1.122-0.233 0.296 0 0.508 0.021 0.614 0.021 0.106 0.021 0.233 0.042 0.339 0.042v2.434c-0.169-0.042-0.36-0.063-0.55-0.085s-0.36-0.042-0.55-0.042c-0.423 0-0.825 0.085-1.206 0.254s-0.698 0.423-0.995 0.741c-0.275 0.339-0.508 0.741-0.677 1.227s-0.254 1.058-0.254 1.693v5.46h-2.539l0.042-11.427zM64.035 26.917h-2.497v-1.608h-0.042c-0.317 0.593-0.783 1.037-1.397 1.397s-1.249 0.529-1.883 0.529c-1.502 0-2.603-0.36-3.28-1.122-0.677-0.741-1.016-1.883-1.016-3.386v-7.301h2.539v7.047c0 1.016 0.19 1.735 0.593 2.137 0.381 0.423 0.931 0.635 1.629 0.635 0.529 0 0.973-0.085 1.333-0.254s0.656-0.381 0.868-0.656c0.233-0.275 0.381-0.614 0.487-0.995s0.148-0.804 0.148-1.249v-6.666h2.539v11.491h-0.021zM68.352 23.235c0.085 0.741 0.36 1.249 0.846 1.566 0.487 0.296 1.079 0.444 1.756 0.444 0.233 0 0.508-0.021 0.804-0.063s0.593-0.106 0.846-0.212c0.275-0.106 0.487-0.254 0.656-0.466s0.254-0.466 0.233-0.783c-0.021-0.317-0.127-0.593-0.36-0.804s-0.508-0.36-0.846-0.508c-0.339-0.127-0.741-0.233-1.185-0.317s-0.889-0.19-1.354-0.296c-0.466-0.106-0.931-0.233-1.375-0.381s-0.825-0.339-1.185-0.614c-0.339-0.254-0.635-0.571-0.825-0.973-0.212-0.402-0.317-0.868-0.317-1.46 0-0.635 0.148-1.143 0.466-1.566 0.296-0.423 0.698-0.762 1.164-1.016s0.995-0.444 1.566-0.55c0.571-0.106 1.122-0.148 1.629-0.148 0.593 0 1.164 0.063 1.693 0.19s1.037 0.317 1.46 0.614c0.444 0.275 0.804 0.656 1.079 1.1 0.296 0.444 0.466 0.995 0.55 1.629h-2.645c-0.127-0.614-0.402-1.016-0.825-1.227-0.444-0.212-0.931-0.317-1.502-0.317-0.169 0-0.402 0.021-0.635 0.042-0.254 0.042-0.466 0.085-0.698 0.169-0.212 0.085-0.402 0.212-0.55 0.36s-0.233 0.36-0.233 0.614c0 0.317 0.106 0.55 0.317 0.741s0.487 0.339 0.846 0.487c0.339 0.127 0.741 0.233 1.185 0.317s0.91 0.19 1.375 0.296c0.466 0.106 0.91 0.233 1.354 0.381s0.846 0.339 1.185 0.614c0.339 0.254 0.635 0.571 0.846 0.952s0.317 0.868 0.317 1.418c0 0.677-0.148 1.249-0.466 1.735-0.317 0.466-0.719 0.868-1.206 1.164s-1.058 0.508-1.651 0.656c-0.614 0.127-1.206 0.212-1.799 0.212-0.719 0-1.397-0.085-2.010-0.254s-1.164-0.423-1.608-0.741c-0.444-0.339-0.804-0.741-1.058-1.249-0.254-0.487-0.402-1.079-0.423-1.778h2.561v0.021h0.021zM76.71 15.427h1.926v-3.47h2.539v3.449h2.285v1.883h-2.285v6.137c0 0.275 0.021 0.487 0.042 0.698 0.021 0.19 0.085 0.36 0.148 0.487 0.085 0.127 0.212 0.233 0.36 0.296 0.169 0.063 0.381 0.106 0.677 0.106 0.169 0 0.36 0 0.529-0.021s0.36-0.042 0.529-0.085v1.968c-0.275 0.042-0.55 0.063-0.825 0.085-0.275 0.042-0.529 0.042-0.825 0.042-0.677 0-1.206-0.063-1.608-0.19s-0.719-0.317-0.952-0.55c-0.233-0.254-0.381-0.55-0.466-0.91s-0.127-0.804-0.148-1.27v-6.772h-1.926v-1.883zM85.238 15.427h2.391v1.566h0.042c0.36-0.677 0.846-1.143 1.481-1.439s1.312-0.444 2.074-0.444c0.91 0 1.693 0.148 2.37 0.487 0.677 0.317 1.227 0.741 1.672 1.312 0.444 0.55 0.783 1.206 0.995 1.947s0.339 1.545 0.339 2.37c0 0.783-0.106 1.524-0.296 2.243-0.212 0.719-0.508 1.375-0.91 1.926s-0.91 0.995-1.545 1.333c-0.635 0.339-1.354 0.508-2.201 0.508-0.36 0-0.741-0.042-1.1-0.106s-0.719-0.169-1.058-0.317c-0.339-0.148-0.656-0.339-0.931-0.571-0.296-0.233-0.529-0.508-0.719-0.804h-0.042v5.735h-2.539v-15.744h-0.021zM94.105 21.183c0-0.508-0.063-1.016-0.212-1.502-0.127-0.487-0.339-0.91-0.614-1.291s-0.614-0.677-0.995-0.91c-0.402-0.233-0.868-0.339-1.375-0.339-1.058 0-1.862 0.36-2.412 1.1-0.529 0.741-0.804 1.735-0.804 2.963 0 0.593 0.063 1.122 0.212 1.608s0.339 0.91 0.635 1.27c0.275 0.36 0.614 0.635 1.016 0.846s0.846 0.317 1.375 0.317c0.593 0 1.058-0.127 1.46-0.36s0.719-0.55 0.995-0.91c0.254-0.381 0.444-0.804 0.55-1.291 0.106-0.508 0.169-0.995 0.169-1.502zM98.57 11.046h2.539v2.391h-2.539v-2.391zM98.57 15.427h2.539v11.491h-2.539v-11.491zM103.373 11.046h2.539v15.871h-2.539v-15.871zM113.658 27.235c-0.909 0-1.735-0.148-2.455-0.466s-1.312-0.719-1.82-1.249c-0.486-0.529-0.867-1.185-1.121-1.926s-0.403-1.566-0.403-2.434c0-0.868 0.127-1.672 0.403-2.412 0.254-0.741 0.635-1.375 1.121-1.926 0.487-0.529 1.1-0.952 1.82-1.249s1.545-0.466 2.455-0.466c0.91 0 1.735 0.148 2.455 0.466 0.719 0.296 1.312 0.719 1.82 1.249 0.487 0.529 0.868 1.185 1.122 1.926s0.402 1.545 0.402 2.412c0 0.889-0.127 1.693-0.402 2.434-0.276 0.741-0.635 1.375-1.122 1.926-0.486 0.529-1.1 0.952-1.82 1.249s-1.524 0.466-2.455 0.466zM113.658 25.224c0.55 0 1.058-0.127 1.461-0.36 0.423-0.233 0.74-0.55 1.016-0.931 0.275-0.381 0.466-0.825 0.593-1.291 0.127-0.487 0.19-0.973 0.19-1.481 0-0.487-0.063-0.973-0.19-1.46s-0.318-0.91-0.593-1.291c-0.276-0.381-0.614-0.677-1.016-0.91-0.423-0.233-0.91-0.36-1.461-0.36s-1.058 0.127-1.46 0.36c-0.423 0.233-0.741 0.55-1.016 0.91-0.276 0.381-0.466 0.804-0.593 1.291s-0.191 0.973-0.191 1.46c0 0.508 0.064 0.995 0.191 1.481s0.317 0.91 0.593 1.291c0.275 0.381 0.613 0.698 1.016 0.931 0.423 0.254 0.909 0.36 1.46 0.36zM120.218 15.427h1.926v-3.47h2.539v3.449h2.285v1.883h-2.285v6.137c0 0.275 0.021 0.487 0.042 0.698 0.021 0.19 0.085 0.36 0.148 0.487 0.085 0.127 0.212 0.233 0.36 0.296 0.169 0.063 0.381 0.106 0.677 0.106 0.169 0 0.359 0 0.529-0.021s0.36-0.042 0.53-0.085v1.968c-0.276 0.042-0.55 0.063-0.826 0.085-0.275 0.042-0.529 0.042-0.825 0.042-0.677 0-1.207-0.063-1.608-0.19-0.403-0.127-0.719-0.317-0.953-0.55-0.232-0.254-0.381-0.55-0.466-0.91s-0.127-0.804-0.148-1.27v-6.772h-1.926v-1.883z"></path>
<path fill="#00b67a" style="fill: var(--color11, #00b67a)" d="M30.409 11.046h-11.618l-3.576-11.046-3.597 11.046-11.618-0.021 9.396 6.835-3.597 11.046 9.396-6.835 9.396 6.835-3.576-11.046 9.396-6.814z"></path>
<path fill="#005128" style="fill: var(--color12, #005128)" d="M21.818 20.357l-0.804-2.497-5.798 4.211 6.602-1.714z"></path>
</symbol>
<symbol id="icon-hero-bottom" viewBox="0 0 34 32">
<path fill="none" stroke="#685bb8" style="stroke: var(--color13, #685bb8)" stroke-linejoin="round" stroke-linecap="round" stroke-miterlimit="1.5" stroke-width="2.2919" d="M23.643 26.914c2.503-5.595 4.359-11.4 6.603-17.086"></path>
<path fill="none" stroke="#685bb8" style="stroke: var(--color13, #685bb8)" stroke-linejoin="round" stroke-linecap="round" stroke-miterlimit="1.5" stroke-width="2.2919" d="M6.857 30.271c6.835-7.314 12.977-15.487 18.622-23.735"></path>
<path fill="none" stroke="#685bb8" style="stroke: var(--color13, #685bb8)" stroke-linejoin="round" stroke-linecap="round" stroke-miterlimit="1.5" stroke-width="2.2919" d="M1.414 13.696c6.503-2.214 14.627-8.133 20.616-11.966"></path>
</symbol>
<symbol id="icon-hero-top" viewBox="0 0 48 32">
<path fill="none" stroke="#685bb8" style="stroke: var(--color13, #685bb8)" stroke-linejoin="round" stroke-linecap="round" stroke-miterlimit="1.5" stroke-width="3.0286" d="M3.469 14.724c4.119-4.206 9.169-4.907 14.291-5.379 6.393-0.589 12.899-0.819 17.847-7.060"></path>
<path fill="none" stroke="#685bb8" style="stroke: var(--color13, #685bb8)" stroke-linejoin="round" stroke-linecap="round" stroke-miterlimit="1.5" stroke-width="3.0286" d="M1.87 26.547c3.754-5.341 9.213-8.497 15.661-9.208 3.374-0.372 6.795-0.002 10.148-0.639 7.553-1.436 14.57-6.021 17.86-13.112"></path>
<path fill="none" stroke="#685bb8" style="stroke: var(--color13, #685bb8)" stroke-linejoin="round" stroke-linecap="round" stroke-miterlimit="1.5" stroke-width="3.0286" d="M34.882 21.965c-2.501 1.604-5.215 2.825-8.195 3.175-5.935 0.697-12.152-0.228-16.659 4.574"></path>
</symbol>
<symbol id="icon-logo" viewBox="0 0 83 32">
<path fill="#6c5fbc" style="fill: var(--color3, #6c5fbc)" d="M7.921 3.705h21.082c2.864 0 5.187 2.322 5.187 5.187v17.412c0 2.864-2.322 5.187-5.187 5.187h-21.082c-2.864 0-5.187-2.322-5.187-5.187v-17.412c0-2.864 2.322-5.187 5.187-5.187z"></path>
<path fill="#dbd9ee" style="fill: var(--color8, #dbd9ee); stroke: var(--color3, #6c5fbc)" stroke="#6c5fbc" stroke-linejoin="miter" stroke-linecap="butt" stroke-miterlimit="4" stroke-width="1.4995" d="M5.187 0.75h21.082c2.45 0 4.437 1.986 4.437 4.437v17.412c0 2.45-1.986 4.437-4.437 4.437h-21.082c-2.45 0-4.437-1.986-4.437-4.437v-17.412c0-2.45 1.986-4.437 4.437-4.437z"></path>
<path fill="none" stroke="#6c5fbc" style="stroke: var(--color3, #6c5fbc)" stroke-linejoin="round" stroke-linecap="round" stroke-miterlimit="4" stroke-width="1.5511" d="M24.278 8.969l-17.043-0.075"></path>
<path fill="none" stroke="#6c5fbc" style="stroke: var(--color3, #6c5fbc)" stroke-linejoin="round" stroke-linecap="round" stroke-miterlimit="4" stroke-width="1.5511" d="M24.268 12.381l-3.79-0.017c-1.568-0.007-2.836-1.541-2.83-3.425s1.283-3.407 2.851-3.4l3.79 0.017"></path>
<path fill="none" stroke="#6c5fbc" style="stroke: var(--color3, #6c5fbc)" stroke-linejoin="round" stroke-linecap="round" stroke-miterlimit="4" stroke-width="1.5511" d="M12.92 19.886l-4.952-0.055c-0.406-0.002-0.746-0.402-0.753-0.89l-0.033-1.285c-0.008-0.51 0.335-0.94 0.759-0.938l4.897 0.055 0.083 3.114z"></path>
<path fill="none" stroke="#6c5fbc" style="stroke: var(--color3, #6c5fbc)" stroke-linejoin="round" stroke-linecap="round" stroke-miterlimit="4" stroke-width="1.5511" d="M20.698 21.738l-7-0.086c-0.406-0.002-0.746-0.402-0.754-0.89l-0.089-4 11.371 0.139 0.008 0.51c0.057 2.416-1.535 4.359-3.536 4.328z"></path>
<path fill="#6c5fbc" style="fill: var(--color3, #6c5fbc)" d="M51.578 16.108c0 0.315-0.021 0.599-0.063 0.851h-6.382c0.053 0.63 0.273 1.124 0.662 1.481s0.867 0.536 1.434 0.536c0.819 0 1.403-0.352 1.749-1.056h2.38c-0.252 0.84-0.735 1.534-1.45 2.080-0.714 0.536-1.592 0.804-2.632 0.804-0.84 0-1.597-0.184-2.269-0.552-0.662-0.378-1.182-0.909-1.56-1.592-0.368-0.683-0.552-1.471-0.552-2.364 0-0.903 0.184-1.697 0.552-2.38s0.882-1.208 1.544-1.576c0.662-0.368 1.424-0.552 2.285-0.552 0.83 0 1.571 0.179 2.222 0.536 0.662 0.357 1.171 0.867 1.529 1.529 0.368 0.651 0.552 1.402 0.552 2.253zM49.293 15.478c-0.011-0.567-0.215-1.019-0.615-1.355-0.399-0.347-0.888-0.52-1.466-0.52-0.546 0-1.009 0.168-1.387 0.504-0.368 0.326-0.594 0.783-0.678 1.371h4.145zM52.621 16.266c0-0.883 0.173-1.665 0.52-2.348 0.357-0.683 0.835-1.208 1.434-1.576 0.609-0.368 1.287-0.552 2.033-0.552 0.651 0 1.219 0.131 1.702 0.394 0.494 0.263 0.888 0.594 1.182 0.993v-1.245h2.222v8.73h-2.222v-1.276c-0.284 0.41-0.678 0.751-1.182 1.024-0.494 0.263-1.066 0.394-1.718 0.394-0.735 0-1.408-0.189-2.017-0.567-0.599-0.378-1.077-0.909-1.434-1.592-0.347-0.693-0.52-1.487-0.52-2.38zM59.492 16.298c0-0.536-0.105-0.993-0.315-1.371-0.21-0.389-0.494-0.683-0.851-0.882-0.357-0.21-0.741-0.315-1.15-0.315s-0.788 0.1-1.135 0.299-0.63 0.494-0.851 0.883c-0.21 0.378-0.315 0.83-0.315 1.355s0.105 0.988 0.315 1.387c0.221 0.389 0.504 0.688 0.851 0.898 0.357 0.21 0.735 0.315 1.135 0.315 0.41 0 0.793-0.1 1.15-0.299 0.357-0.21 0.641-0.504 0.851-0.882 0.21-0.389 0.315-0.851 0.315-1.387zM66.437 13.745v4.223c0 0.294 0.068 0.509 0.205 0.646 0.147 0.126 0.389 0.189 0.725 0.189h1.024v1.86h-1.387c-1.859 0-2.789-0.904-2.789-2.71v-4.208h-1.040v-1.812h1.040v-2.159h2.222v2.159h1.954v1.812h-1.954zM72.184 9.001v11.661h-2.206v-11.661h2.206zM82.716 11.932l-5.405 12.859h-2.348l1.891-4.349-3.499-8.51h2.474l2.253 6.099 2.285-6.099h2.348z"></path>
</symbol>
<symbol id="icon-facebook" viewBox="0 0 32 32">
<path d="M19 6h5v-6h-5c-3.86 0-7 3.14-7 7v3h-4v6h4v16h6v-16h5l1-6h-6v-3c0-0.542 0.458-1 1-1z"></path>
</symbol>
<symbol id="icon-instagram" viewBox="0 0 32 32">
<path d="M16 2.881c4.275 0 4.781 0.019 6.462 0.094 1.563 0.069 2.406 0.331 2.969 0.55 0.744 0.288 1.281 0.638 1.837 1.194 0.563 0.563 0.906 1.094 1.2 1.838 0.219 0.563 0.481 1.412 0.55 2.969 0.075 1.688 0.094 2.194 0.094 6.463s-0.019 4.781-0.094 6.463c-0.069 1.563-0.331 2.406-0.55 2.969-0.288 0.744-0.637 1.281-1.194 1.837-0.563 0.563-1.094 0.906-1.837 1.2-0.563 0.219-1.413 0.481-2.969 0.55-1.688 0.075-2.194 0.094-6.463 0.094s-4.781-0.019-6.463-0.094c-1.563-0.069-2.406-0.331-2.969-0.55-0.744-0.288-1.281-0.637-1.838-1.194-0.563-0.563-0.906-1.094-1.2-1.837-0.219-0.563-0.481-1.413-0.55-2.969-0.075-1.688-0.094-2.194-0.094-6.463s0.019-4.781 0.094-6.463c0.069-1.563 0.331-2.406 0.55-2.969 0.288-0.744 0.638-1.281 1.194-1.838 0.563-0.563 1.094-0.906 1.838-1.2 0.563-0.219 1.412-0.481 2.969-0.55 1.681-0.075 2.188-0.094 6.463-0.094zM16 0c-4.344 0-4.887 0.019-6.594 0.094-1.7 0.075-2.869 0.35-3.881 0.744-1.056 0.412-1.95 0.956-2.837 1.85-0.894 0.888-1.438 1.781-1.85 2.831-0.394 1.019-0.669 2.181-0.744 3.881-0.075 1.713-0.094 2.256-0.094 6.6s0.019 4.887 0.094 6.594c0.075 1.7 0.35 2.869 0.744 3.881 0.413 1.056 0.956 1.95 1.85 2.837 0.887 0.887 1.781 1.438 2.831 1.844 1.019 0.394 2.181 0.669 3.881 0.744 1.706 0.075 2.25 0.094 6.594 0.094s4.888-0.019 6.594-0.094c1.7-0.075 2.869-0.35 3.881-0.744 1.050-0.406 1.944-0.956 2.831-1.844s1.438-1.781 1.844-2.831c0.394-1.019 0.669-2.181 0.744-3.881 0.075-1.706 0.094-2.25 0.094-6.594s-0.019-4.887-0.094-6.594c-0.075-1.7-0.35-2.869-0.744-3.881-0.394-1.063-0.938-1.956-1.831-2.844-0.887-0.887-1.781-1.438-2.831-1.844-1.019-0.394-2.181-0.669-3.881-0.744-1.712-0.081-2.256-0.1-6.6-0.1v0z"></path>
<path d="M16 7.781c-4.537 0-8.219 3.681-8.219 8.219s3.681 8.219 8.219 8.219 8.219-3.681 8.219-8.219c0-4.537-3.681-8.219-8.219-8.219zM16 21.331c-2.944 0-5.331-2.387-5.331-5.331s2.387-5.331 5.331-5.331c2.944 0 5.331 2.387 5.331 5.331s-2.387 5.331-5.331 5.331z"></path>
<path d="M26.462 7.456c0 1.060-0.859 1.919-1.919 1.919s-1.919-0.859-1.919-1.919c0-1.060 0.859-1.919 1.919-1.919s1.919 0.859 1.919 1.919z"></path>
</symbol>
<symbol id="icon-twitter" viewBox="0 0 32 32">
<path d="M32 7.075c-1.175 0.525-2.444 0.875-3.769 1.031 1.356-0.813 2.394-2.1 2.887-3.631-1.269 0.75-2.675 1.3-4.169 1.594-1.2-1.275-2.906-2.069-4.794-2.069-3.625 0-6.563 2.938-6.563 6.563 0 0.512 0.056 1.012 0.169 1.494-5.456-0.275-10.294-2.888-13.531-6.862-0.563 0.969-0.887 2.1-0.887 3.3 0 2.275 1.156 4.287 2.919 5.463-1.075-0.031-2.087-0.331-2.975-0.819 0 0.025 0 0.056 0 0.081 0 3.181 2.263 5.838 5.269 6.437-0.55 0.15-1.131 0.231-1.731 0.231-0.425 0-0.831-0.044-1.237-0.119 0.838 2.606 3.263 4.506 6.131 4.563-2.25 1.762-5.075 2.813-8.156 2.813-0.531 0-1.050-0.031-1.569-0.094 2.913 1.869 6.362 2.95 10.069 2.95 12.075 0 18.681-10.006 18.681-18.681 0-0.287-0.006-0.569-0.019-0.85 1.281-0.919 2.394-2.075 3.275-3.394z"></path>
</symbol>
<symbol id="icon-linkedin" viewBox="0 0 32 32">
<path d="M12 12h5.535v2.837h0.079c0.77-1.381 2.655-2.837 5.464-2.837 5.842 0 6.922 3.637 6.922 8.367v9.633h-5.769v-8.54c0-2.037-0.042-4.657-3.001-4.657-3.005 0-3.463 2.218-3.463 4.509v8.688h-5.767v-18z"></path>
<path d="M2 12h6v18h-6v-18z"></path>
<path d="M8 7c0 1.657-1.343 3-3 3s-3-1.343-3-3c0-1.657 1.343-3 3-3s3 1.343 3 3z"></path>
</symbol>
<symbol id="icon-plus" viewBox="0 0 32 32">
<path fill="#6c5fbc" style="fill: var(--color1, #6c5fbc); stroke: var(--color1, #6c5fbc)" stroke="#6c5fbc" stroke-linejoin="miter" stroke-linecap="butt" stroke-miterlimit="4" stroke-width="1.1515" d="M31.223 15.812c0 8.268-6.702 14.97-14.97 14.97s-14.97-6.702-14.97-14.97c0-8.268 6.702-14.97 14.97-14.97s14.97 6.702 14.97 14.97z"></path>
<path fill="#fff" style="fill: var(--color2, #fff)" d="M10.495 15.813h10.94v1.152h-10.94v-1.152z"></path>
<path fill="#fff" style="fill: var(--color2, #fff)" d="M15.39 21.858v-10.94h1.152v10.94h-1.152z"></path>
</symbol>
<symbol id="icon-icecream" viewBox="0 0 18 32">
<path fill="#fff" style="fill: var(--color2, #fff)" d="M3.728 12.584c0 0-2.039-3.667 2.601-5.885s3.726-4.49 3.691-5.885c0 0 3.902 1.359 3.902 5.42 0 4.704-10.193 6.35-10.193 6.35z"></path>
<path fill="#5a85ff" style="fill: var(--color3, #5a85ff)" d="M11.040 2.353c0 0 1.019 3.721-0.967 5.098s-4.851 1.789-5.905 3.417c0 0 1.494 0.769 3.867 0.161s5.887-4.221 5.887-4.221 1.512-5.76-2.882-4.454z"></path>
<path fill="#507be1" style="fill: var(--color4, #507be1)" d="M11.075 2.459c0 0 1.863 2.379 1.424 3.971s-2.425 2.629-2.724 2.701c-0.299 0.072-4.587 1.002-5.589 1.735 0 0 4.71-0.036 6.028-0.769 1.336-0.733 4.2-2.665 3.55-4.203s-1.248-4.203-2.689-3.434z"></path>
<path fill="#4c2f1b" style="fill: var(--color5, #4c2f1b)" d="M3.893 13.344c-0.070-0.014-0.116-0.014-0.164-0.014-0.264 0-0.506-0.142-0.633-0.371-0.154-0.301-0.883-1.861-0.337-3.591 0.443-1.387 1.546-2.512 3.279-3.341 3.594-1.699 3.448-3.222 3.32-4.565-0.018-0.232-0.035-0.43-0.053-0.628 0.001-0.227 0.112-0.46 0.299-0.606 0.125-0.090 0.28-0.142 0.432-0.142 0.082 0 0.162 0.014 0.237 0.043 0.752 0.291 4.399 1.918 4.399 6.141 0 5.202-9.995 6.946-10.779 7.074zM10.858 2.416c-0.060 1.411-0.591 3.249-4.201 4.956-1.352 0.651-2.194 1.47-2.504 2.436-0.209 0.678-0.127 1.334-0.021 1.766l0.042 0.171 0.17-0.035c0.906-0.187 8.845-1.925 8.845-5.476 0-2.016-1.111-3.266-2.043-3.959l-0.274-0.204-0.015 0.345z"></path>
<path fill="#fff" style="fill: var(--color2, #fff)" d="M1.918 17.7c0 0-2.302-3.971 2.619-5.938 4.675-1.878 5.765-0.036 9.121-4.311 0.475 0.876 2.179 3.309-0.193 6.368-1.037 1.342-9.104 3.953-11.547 3.882z"></path>
<path fill="#ff5c68" style="fill: var(--color6, #ff5c68)" d="M13.483 8.631c0 0 0.738 3.649-5.729 4.168-4.324 0.34-5.905 3.739-5.905 3.739l9.965-1.771 2.882-2.88-1.212-3.256z"></path>
<path fill="#ffcd8a" style="fill: var(--color7, #ffcd8a)" d="M6.365 30.722c-0.439 0-0.826-0.322-0.896-0.769l-0.984-5.956c-0.053-0.268 0.035-0.554 0.211-0.751 0.176-0.215 0.422-0.322 0.703-0.322h6.028c0.263 0 0.527 0.125 0.703 0.322 0.176 0.215 0.246 0.483 0.211 0.751l-0.984 5.956c-0.070 0.447-0.457 0.769-0.896 0.769h-4.095z"></path>
<path fill="#4c2f1b" style="fill: var(--color5, #4c2f1b)" d="M6.365 31.467c-0.804 0-1.505-0.602-1.631-1.401l-0.985-5.958c-0.080-0.506 0.052-1.005 0.362-1.368 0.325-0.38 0.787-0.598 1.269-0.598h6.028c0.482 0 0.944 0.218 1.269 0.598 0.31 0.378 0.443 0.878 0.362 1.369l-0.984 5.956c-0.144 0.811-0.83 1.402-1.631 1.402l-4.060 0zM6.211 29.958h4.367l1.045-6.326h-6.458l1.045 6.326z"></path>
<path fill="#ffcd8a" style="fill: var(--color7, #ffcd8a)" d="M13.186 25.484l-4.728 0.263h-0.111l-4.728-0.263c-0.462-0.019-0.868-0.376-0.942-0.846l-0.794-4.229c-0.111-0.639 0.369-1.24 0.997-1.24h11.043c0.646 0 1.127 0.601 0.997 1.24l-0.794 4.229c-0.093 0.47-0.48 0.808-0.942 0.846z"></path>
<path fill="#ffbb71" style="fill: var(--color8, #ffbb71)" d="M1.039 21.655l0.427-0.612 7.55 5.461-0.427 0.612-7.55-5.461zM3.518 21.115l0.427-0.612 7.55 5.461-0.428 0.612-7.549-5.461zM6.351 20.657l0.428-0.612 7.55 5.461-0.428 0.612-7.55-5.461zM8.318 19.458l0.428-0.612 6.547 4.736-0.428 0.612-6.546-4.736z"></path>
<path fill="#ffbb71" style="fill: var(--color8, #ffbb71)" d="M7.324 26.514l7.551-5.46 0.427 0.613-7.55 5.46-0.427-0.613zM4.854 25.956l9.341-6.755 0.428 0.613-9.341 6.755-0.427-0.612zM1.994 25.51l7.55-5.46 0.428 0.612-7.55 5.46-0.427-0.612zM1.041 23.59l6.548-4.735 0.427 0.613-6.548 4.735-0.427-0.613z"></path>
<path fill="#4c2f1b" style="fill: var(--color5, #4c2f1b)" d="M8.228 27.246l-4.489-0.25c-1.2-0.050-2.199-0.938-2.433-2.158l-0.755-4.024c-0.147-0.762 0.058-1.561 0.56-2.192 0.514-0.624 1.232-0.969 2.021-0.969h10.528c0.781 0 1.515 0.36 1.964 0.964 0.511 0.604 0.714 1.402 0.564 2.197l-0.756 4.025c-0.23 1.203-1.23 2.091-2.433 2.158l-4.494 0.25h-0.276zM3.149 19.143c-0.333 0-0.65 0.152-0.869 0.418-0.225 0.273-0.32 0.63-0.259 0.98l0.756 4.027c0.082 0.521 0.541 0.934 1.067 0.955l4.496 0.25 0.115 0 4.509-0.251c0.527-0.043 0.963-0.435 1.064-0.953l0.756-4.026c0.069-0.342-0.016-0.696-0.235-0.969s-0.545-0.431-0.892-0.431h-10.51z"></path>
<path fill="#f93d53" style="fill: var(--color9, #f93d53)" d="M13.5 9.132c0 0 0.404 2.629-1.283 3.846-2.074 1.825-8.014 1.61-9.491 2.772 0 0 9.315 0.197 10.404-2.522s1.441-3.971 0.369-4.096z"></path>
<path fill="#4c2f1b" style="fill: var(--color5, #4c2f1b)" d="M1.901 18.463c-0.246 0-0.472-0.138-0.619-0.378-0.017-0.026-1.085-1.892-0.422-3.867 0.455-1.372 1.596-2.43 3.392-3.143 1.791-0.708 3.114-0.885 4.176-1.027 1.816-0.238 2.815-0.369 4.776-2.858 0.136-0.176 0.336-0.276 0.549-0.276 0.027 0 0.053 0.001 0.079 0.005 0.253 0.016 0.471 0.162 0.58 0.382 0.026 0.043 0.041 0.070 0.057 0.097 0.020 0.036 0.040 0.071 0.060 0.102 0.555 0.959 2.043 3.529-0.483 6.795-1.286 1.657-9.497 4.169-12.054 4.169h-0.088v-0zM13.457 9.165c-1.856 1.977-3.234 2.154-4.83 2.359-1.13 0.137-2.274 0.311-3.84 0.942-1.374 0.541-2.232 1.295-2.548 2.241-0.214 0.61-0.191 1.325 0.070 2.121l0.046 0.139 0.144-0.014c2.824-0.266 9.609-2.604 10.372-3.574 1.459-1.901 1.207-3.279 0.89-4.151l-0.101-0.277-0.201 0.214z"></path>
<path fill="#fff" style="fill: var(--color2, #fff)" d="M14.379 12.423c0 0-1.055 2.397-5.185 3.238-3.322 0.662-8.295 0.233-8.313 3.488 0 3.095 12.654 2.558 14.218-0.233 2.267-4.060-0.721-6.493-0.721-6.493z"></path>
<path fill="#fff383" style="fill: var(--color10, #fff383)" d="M1.743 19.166c1.986-1.86 7.223-0.715 9.069-1.395 2.496-0.93 3.568-1.234 3.779-4.025 0 0 3.199 3.774-0.896 6.314-2.373 1.431-10.528 2.451-11.951-0.894z"></path>
<path fill="#f6e259" style="fill: var(--color11, #f6e259)" d="M14.625 13.729c0 0 3.603 7.53-11.898 6.153 0.018-0 17.206 3.13 11.898-6.153z"></path>
<path fill="#4c2f1b" style="fill: var(--color5, #4c2f1b)" d="M6.4 21.915c-1.779 0-3.259-0.2-4.279-0.579-1.292-0.451-1.972-1.207-1.972-2.187 0-3.149 3.529-3.557 6.365-3.885l0.082-0.010c0.988-0.1 1.787-0.212 2.44-0.342 3.481-0.705 4.853-2.617 4.971-2.921l-0.015 0.059c0.111-0.197 0.292-0.331 0.511-0.375 0.039-0.008 0.080-0.012 0.12-0.012 0.167 0 0.344 0.068 0.484 0.187 1.318 1.153 3.13 4.211 0.537 7.524-1.257 1.652-5.699 2.542-9.243 2.542zM14.548 13.742c-0.879 0.913-2.497 2.113-5.213 2.649-0.821 0.163-1.758 0.271-2.567 0.355-3.104 0.351-5.137 0.707-5.137 2.402 0 0.353 0.626 0.63 1 0.765 0.907 0.324 2.183 0.496 3.689 0.496 3.162 0 7.315-0.808 8.218-1.968 1.592-2.059 0.864-3.812 0.289-4.673l-0.125-0.187-0.155 0.161z"></path>
</symbol>
<symbol id="icon-doughnut" viewBox="0 0 32 32">
<path fill="#edb66b" style="fill: var(--color12, #edb66b)" d="M16.026 1.173c-8.24 0-14.938 6.678-14.938 14.938 0 8.241 6.678 14.938 14.938 14.938 8.241 0 14.938-6.678 14.938-14.938s-6.697-14.938-14.938-14.938zM16.026 21.064c-2.74 0-4.973-2.233-4.973-4.973s2.233-4.973 4.973-4.973c2.74 0 4.973 2.233 4.973 4.973 0 2.761-2.232 4.973-4.973 4.973z"></path>
<path fill="#86522c" style="fill: var(--color13, #86522c)" d="M9.284 20.982c-0.369 0-0.68-0.136-0.913-0.369-0.544-0.564-0.525-1.535-0.486-2.681 0.019-0.991 0.058-2.235-0.408-2.72-0.097-0.117-0.291-0.252-0.738-0.272h-0.078c-0.486 0-0.835 0.097-1.030 0.311-0.389 0.408-0.33 1.321-0.291 2.060 0.058 0.777 0.097 1.457-0.35 1.846-0.33 0.311-0.777 0.466-1.263 0.466-0.952 0-2.079-0.66-2.448-1.438-0.038-0.078-0.058-0.137-0.058-0.214l-0.019-0.194c-0.058-0.738-0.136-1.554-0.136-1.904 0-8.239 6.703-14.922 14.922-14.922s14.922 6.703 14.922 14.922c0 0.33-0.019 0.68-0.039 1.011-0.078 1.030-0.913 1.826-1.923 1.826-0.214 0-0.447-0.039-0.66-0.117-0.972-0.369-1.788-1.069-2.565-1.749-1.127-0.991-2.196-1.904-3.711-1.943-0.952-0.019-1.807-0.544-2.254-1.36-1.088-2.021-1.224-2.099-3.964-2.099-5.052 0-5.052 2.837-5.052 3.77 0 0.525 0.039 1.088 0.058 1.632 0.097 1.593 0.175 2.992-0.505 3.711-0.213 0.272-0.583 0.428-1.010 0.428z"></path>
<path fill="#4c2f1b" style="fill: var(--color5, #4c2f1b)" d="M16.026 1.591c7.888 0 14.3 6.392 14.3 14.3 0 0.33-0.019 0.66-0.039 0.972-0.058 0.699-0.641 1.224-1.282 1.224-0.136 0-0.291-0.019-0.427-0.078-2.176-0.816-3.595-3.672-6.489-3.73-0.699-0.019-1.38-0.408-1.71-1.030-1.224-2.293-1.632-2.429-4.527-2.429-3.225 0-5.693 1.088-5.693 4.391 0 2.37 0.602 5.129-0.855 5.129-1.923 0 0.738-5.945-2.526-6.023h-0.097c-3.167 0-1.418 3.77-2.079 4.391-0.233 0.214-0.525 0.291-0.836 0.291-0.777 0-1.632-0.544-1.866-1.069-0.039-0.408-0.136-1.632-0.136-2.040-0.039-7.908 6.373-14.3 14.261-14.3zM16.026 0.308c-8.588 0-15.563 6.976-15.563 15.563 0 0.369 0.078 1.205 0.136 1.962l0.019 0.194c0.019 0.156 0.058 0.311 0.117 0.447 0.486 1.010 1.807 1.788 3.012 1.788 0.641 0 1.224-0.214 1.69-0.622 0.68-0.602 0.622-1.496 0.563-2.37-0.019-0.447-0.097-1.36 0.117-1.574 0.039-0.039 0.214-0.117 0.563-0.117h0.058c0.058 0 0.233 0 0.291 0.058 0.291 0.291 0.252 1.574 0.233 2.273-0.039 1.224-0.058 2.39 0.66 3.128 0.35 0.369 0.836 0.564 1.38 0.564 0.603 0 1.127-0.214 1.515-0.641 0.855-0.913 0.777-2.429 0.68-4.178-0.039-0.525-0.058-1.088-0.058-1.593 0-0.933 0-3.128 4.411-3.128 2.468 0 2.468 0 3.4 1.768 0.544 1.030 1.632 1.671 2.798 1.691 1.282 0.019 2.215 0.835 3.303 1.787 0.836 0.719 1.691 1.477 2.759 1.866 0.272 0.097 0.583 0.156 0.874 0.156 1.341 0 2.468-1.049 2.545-2.409 0.019-0.35 0.039-0.719 0.039-1.069 0.020-8.549-6.955-15.544-15.543-15.544z"></path>
<path fill="#e3a358" style="fill: var(--color14, #e3a358)" d="M18.17 29.875c0.108 0.283 0.552 0.376 0.992 0.207s0.708-0.534 0.6-0.816c-0.108-0.283-0.552-0.375-0.992-0.207s-0.708 0.534-0.6 0.816z"></path>
<path fill="#e3a358" style="fill: var(--color14, #e3a358)" d="M26.36 24.642c0.189 0.494 0.649 0.842 1.207 0.912s1.128-0.149 1.497-0.573c0.369-0.425 0.479-0.991 0.29-1.485s-0.65-0.842-1.207-0.912c-0.558-0.070-1.129 0.149-1.498 0.573s-0.479 0.991-0.29 1.485z"></path>
<path fill="#e3a358" style="fill: var(--color14, #e3a358)" d="M12.217 30.809c0.189 0.494 0.65 0.842 1.207 0.912s1.129-0.149 1.498-0.573c0.369-0.425 0.479-0.991 0.29-1.485s-0.649-0.842-1.207-0.912c-0.558-0.070-1.129 0.149-1.498 0.573s-0.479 0.991-0.29 1.485z"></path>
<path fill="#e3a358" style="fill: var(--color14, #e3a358)" d="M9.104 28.526c0.297 0.067 0.594 0.028 0.781-0.104s0.232-0.335 0.121-0.534c-0.111-0.199-0.362-0.364-0.659-0.431s-0.594-0.028-0.781 0.104c-0.186 0.132-0.232 0.335-0.121 0.534s0.362 0.364 0.659 0.431z"></path>
<path fill="#e3a358" style="fill: var(--color14, #e3a358)" d="M15.462 22.493c0.248 0.056 0.489 0.052 0.634-0.012s0.17-0.177 0.068-0.297c-0.103-0.12-0.319-0.229-0.566-0.285s-0.489-0.052-0.634 0.012-0.17 0.177-0.068 0.297c0.103 0.12 0.319 0.228 0.566 0.285z"></path>
<path fill="#e3a358" style="fill: var(--color14, #e3a358)" d="M4.282 23.885c0.191 0.043 0.383 0.015 0.504-0.073s0.151-0.224 0.081-0.356c-0.071-0.132-0.231-0.24-0.422-0.283s-0.383-0.016-0.503 0.073c-0.121 0.088-0.152 0.224-0.081 0.356s0.231 0.24 0.422 0.283z"></path>
<path fill="#e3a358" style="fill: var(--color14, #e3a358)" d="M11.98 21.062c0.252 0.171 0.52 0.278 0.702 0.28s0.252-0.1 0.182-0.269c-0.069-0.169-0.267-0.378-0.52-0.549s-0.52-0.278-0.702-0.28c-0.182-0.002-0.252 0.1-0.182 0.269s0.268 0.378 0.52 0.549z"></path>
<path fill="#4c2f1b" style="fill: var(--color5, #4c2f1b)" d="M16.027 31.914c-8.714 0-15.803-7.089-15.803-15.803s7.089-15.803 15.803-15.803c8.714 0 15.803 7.089 15.803 15.803s-7.089 15.803-15.803 15.803zM16.027 2.037c-7.749 0-14.053 6.305-14.053 14.053s6.304 14.053 14.053 14.053c7.749 0 14.053-6.304 14.053-14.053s-6.304-14.053-14.053-14.053zM16.027 21.948c-3.219 0-5.837-2.618-5.837-5.837 0-3.23 2.618-5.858 5.837-5.858s5.837 2.618 5.837 5.837c0 3.229-2.618 5.857-5.837 5.857zM16.027 12.003c-2.254 0-4.088 1.834-4.088 4.088s1.834 4.088 4.088 4.088c2.254 0 4.088-1.834 4.088-4.088s-1.834-4.088-4.088-4.088z"></path>
<path fill="#db79ad" style="fill: var(--color15, #db79ad)" d="M16.879 7.952l-3.41-2.253c-0.142-0.081-0.162-0.264-0.081-0.406l0.386-0.568c0.081-0.142 0.264-0.162 0.406-0.081l3.41 2.253c0.142 0.081 0.162 0.264 0.081 0.406l-0.386 0.569c-0.081 0.142-0.263 0.162-0.406 0.081z"></path>
<path fill="#f6b173" style="fill: var(--color16, #f6b173)" d="M3.341 11.524l0.893-1.948c0.061-0.142 0.244-0.203 0.386-0.142l0.629 0.284c0.142 0.061 0.203 0.244 0.142 0.386l-0.893 1.948c-0.061 0.142-0.244 0.203-0.386 0.142l-0.629-0.284c-0.142-0.081-0.223-0.244-0.142-0.386zM25.505 11.361l-1.705-1.319c-0.122-0.101-0.142-0.284-0.061-0.406l0.426-0.548c0.101-0.122 0.284-0.142 0.406-0.061l1.705 1.319c0.122 0.102 0.142 0.284 0.061 0.406l-0.426 0.548c-0.101 0.142-0.284 0.162-0.406 0.060z"></path>
<path fill="#f7e774" style="fill: var(--color17, #f7e774)" d="M21.222 8.601l-1.177-2.659c-0.061-0.142 0-0.325 0.142-0.386l0.629-0.284c0.142-0.061 0.325 0 0.386 0.142l1.177 2.659c0.061 0.142 0 0.325-0.142 0.386l-0.629 0.284c-0.141 0.061-0.304-0-0.385-0.142zM8.151 13.554l-1.177-2.659c-0.061-0.142 0-0.325 0.142-0.386l0.629-0.284c0.142-0.061 0.325 0 0.386 0.142l1.177 2.659c0.061 0.142 0 0.325-0.142 0.386l-0.629 0.284c-0.162 0.081-0.325 0-0.386-0.142z"></path>
<path fill="#ec6a69" style="fill: var(--color18, #ec6a69)" d="M8.7 8.053l1.218-2.639c0.061-0.142 0.244-0.203 0.386-0.142l0.629 0.284c0.142 0.061 0.203 0.244 0.142 0.386l-1.218 2.639c-0.061 0.142-0.243 0.203-0.386 0.142l-0.629-0.284c-0.142-0.061-0.203-0.223-0.142-0.386zM27.027 14.67l0.406-2.882c0.020-0.163 0.162-0.264 0.325-0.244l0.69 0.101c0.162 0.020 0.264 0.162 0.243 0.325l-0.406 2.882c-0.020 0.162-0.162 0.264-0.325 0.243l-0.69-0.101c-0.163-0.020-0.264-0.162-0.244-0.325z"></path>
<path fill="#e3a358" style="fill: var(--color14, #e3a358)" d="M7.189 24.603c0.142 0.073 0.299 0.088 0.414 0.041s0.167-0.151 0.139-0.271c-0.028-0.12-0.133-0.239-0.275-0.312s-0.299-0.088-0.414-0.041c-0.114 0.047-0.167 0.151-0.139 0.271s0.133 0.239 0.275 0.312z"></path>
<path fill="#e3a358" style="fill: var(--color14, #e3a358)" d="M22.114 25.316c0.036 0.095 0.186 0.138 0.391 0.113s0.437-0.113 0.607-0.232c0.169-0.119 0.252-0.251 0.215-0.346s-0.186-0.138-0.391-0.114c-0.206 0.024-0.437 0.113-0.607 0.232s-0.252 0.252-0.215 0.346z"></path>
<path fill="#e3a358" style="fill: var(--color14, #e3a358)" d="M13.003 24.251c0.192 0.142 0.421 0.205 0.599 0.165s0.28-0.177 0.265-0.359c-0.014-0.182-0.141-0.382-0.334-0.524s-0.421-0.205-0.599-0.165c-0.178 0.040-0.28 0.177-0.265 0.36s0.141 0.382 0.334 0.524z"></path>
<path fill="#e3a358" style="fill: var(--color14, #e3a358)" d="M18.689 26.975c0.023 0.166 0.249 0.273 0.504 0.237s0.444-0.199 0.421-0.366c-0.023-0.166-0.249-0.273-0.504-0.237s-0.444 0.199-0.421 0.366z"></path>
</symbol>
<symbol id="icon-hotdog" viewBox="0 0 33 32">
<path fill="#f4a360" style="fill: var(--color19, #f4a360)" d="M16.978 16.537c-3.873 3.626-8.511 4.409-9.027 4.487-0.793 0.118-1.587-0.076-2.231-0.554s-1.069-1.177-1.186-1.97c-0.147-0.977 0.197-1.967 0.919-2.643 0.444-0.416 0.995-0.682 1.598-0.777 0.127-0.020 3.248-0.543 5.773-2.908 1.488-1.393 2.472-3.152 2.925-5.227 0.132-0.598 0.434-1.135 0.88-1.553 0.722-0.676 1.731-0.957 2.696-0.746 0.784 0.169 1.454 0.638 1.888 1.313s0.578 1.482 0.406 2.263c-0.721 3.308-2.281 6.105-4.642 8.315z"></path>
<path fill="#4c2f1b" style="fill: var(--color5, #4c2f1b)" d="M17.458 17.051c-3.878 3.631-8.512 4.53-9.402 4.673-0.978 0.146-1.957-0.097-2.755-0.686-0.799-0.59-1.32-1.454-1.465-2.433-0.182-1.206 0.242-2.426 1.136-3.262 0.546-0.512 1.224-0.845 1.959-0.964 0.024-0.003 3.016-0.486 5.408-2.726 1.379-1.291 2.294-2.928 2.717-4.863 0.161-0.738 0.538-1.401 1.089-1.917 0.893-0.836 2.138-1.18 3.329-0.919 0.97 0.213 1.798 0.789 2.331 1.622 0.535 0.835 0.713 1.828 0.503 2.796-0.752 3.45-2.384 6.37-4.85 8.678zM5.934 16.37c-0.55 0.515-0.815 1.272-0.708 2.023 0.187 1.255 1.36 2.121 2.615 1.933 0.195-0.029 4.847-0.742 8.651-4.303 2.25-2.107 3.743-4.781 4.436-7.95 0.132-0.599 0.022-1.215-0.309-1.732s-0.846-0.875-1.447-1.006c-0.739-0.161-1.51 0.053-2.064 0.571-0.342 0.321-0.576 0.731-0.675 1.188-0.485 2.219-1.538 4.101-3.131 5.592-2.608 2.442-5.795 3.031-6.15 3.090-0.456 0.069-0.878 0.274-1.219 0.593z"></path>
<path fill="#ff6c4a" style="fill: var(--color20, #ff6c4a)" d="M19.271 18.589c-3.409 3.192-7.81 4.745-10.795 5.136-0.796 0.105-1.583-0.107-2.221-0.597s-1.044-1.195-1.146-1.993c-0.124-0.957 0.222-1.924 0.927-2.585 0.459-0.43 1.032-0.703 1.657-0.785 0.049-0.008 1.291-0.179 2.906-0.783 1.806-0.675 3.346-1.599 4.575-2.75 1.781-1.667 2.853-3.781 3.181-6.28 0.091-0.687 0.419-1.328 0.925-1.802 0.66-0.618 1.554-0.905 2.449-0.788 0.794 0.103 1.504 0.51 1.993 1.148s0.699 1.425 0.597 2.221c-0.516 3.889-2.214 7.204-5.048 9.857z"></path>
<path fill="#4c2f1b" style="fill: var(--color5, #4c2f1b)" d="M19.757 19.109c-3.527 3.302-8.092 4.913-11.188 5.319-0.984 0.128-1.958-0.134-2.744-0.738-0.783-0.602-1.285-1.476-1.415-2.462-0.155-1.18 0.273-2.373 1.145-3.189 0.568-0.532 1.274-0.867 2.042-0.97 0.010-0.001 1.2-0.163 2.756-0.743 1.72-0.643 3.181-1.52 4.34-2.605 1.657-1.551 2.653-3.522 2.961-5.857 0.109-0.849 0.515-1.64 1.143-2.228 0.817-0.765 1.919-1.117 3.024-0.966 0.98 0.127 1.853 0.63 2.46 1.418 0.605 0.785 0.866 1.759 0.736 2.743-0.535 4.053-2.305 7.511-5.261 10.278zM6.519 19.067c-0.54 0.505-0.805 1.244-0.712 1.977 0.163 1.258 1.32 2.148 2.577 1.984 2.876-0.376 7.12-1.875 10.406-4.951 2.713-2.54 4.336-5.715 4.826-9.437 0.080-0.608-0.081-1.212-0.455-1.698s-0.915-0.8-1.525-0.88c-0.688-0.088-1.371 0.131-1.875 0.603-0.388 0.364-0.64 0.854-0.708 1.382-0.35 2.665-1.492 4.92-3.397 6.703-1.297 1.214-2.915 2.188-4.811 2.896-1.73 0.645-3.044 0.819-3.057 0.82-0.478 0.064-0.917 0.272-1.27 0.602z"></path>
<path fill="#f9af38" style="fill: var(--color21, #f9af38)" d="M12.286 19.881c-0.547 0.512-1.238 0.171-1.697-0.053-0.48-0.237-0.732-0.33-0.85-0.22-0.286 0.268-0.733 0.253-1-0.032s-0.253-0.732 0.033-1c0.835-0.782 1.838-0.314 2.402-0.039-0.068-0.515-0.134-1.304 0.481-1.88 0.619-0.58 1.423-0.481 1.956-0.42 0.097 0.013 0.225 0.029 0.324 0.035 0.015-0.155 0.008-0.393 0.004-0.549-0.016-0.555-0.031-1.184 0.396-1.584 0.444-0.416 1.132-0.355 1.74-0.298 0.073 0.007 0.155 0.015 0.24 0.020-0.002-0.017-0.004-0.029-0.008-0.044-0.082-0.53-0.203-1.333 0.369-1.869 0.449-0.42 1.098-0.356 1.669-0.293 0.056 0.004 0.124 0.011 0.191 0.018-0.005-0.005-0.004-0.010-0.007-0.013-0.275-0.585-0.785-1.668 0.043-2.443 0.286-0.268 0.733-0.253 1 0.032s0.253 0.732-0.033 1c-0.046 0.137 0.167 0.591 0.272 0.808 0.24 0.508 0.57 1.207 0.020 1.721-0.439 0.411-1.073 0.347-1.633 0.287-0.157-0.017-0.402-0.042-0.548-0.037-0.012 0.148 0.030 0.419 0.054 0.58 0.074 0.476 0.156 1.016-0.251 1.396-0.379 0.355-0.926 0.303-1.508 0.25-0.17-0.015-0.422-0.038-0.592-0.034-0.010 0.141-0.002 0.335 0.001 0.469 0.017 0.586 0.031 1.25-0.425 1.677-0.436 0.409-1.020 0.339-1.492 0.282-0.334-0.040-0.68-0.083-0.818 0.047-0.11 0.103-0.083 0.374-0.035 0.747 0.064 0.425 0.143 1.023-0.298 1.436z"></path>
<path fill="#f4a360" style="fill: var(--color19, #f4a360)" d="M21.249 21.215c-3.605 3.375-7.779 4.612-8.619 4.74-0.794 0.118-1.517 0.004-2.089-0.33-0.653-0.381-1.081-1.039-1.202-1.852-0.147-0.977 0.197-1.967 0.919-2.643 0.444-0.416 0.995-0.682 1.598-0.777 0.127-0.020 3.248-0.543 5.774-2.908 1.487-1.393 2.472-3.152 2.925-5.227 0.132-0.598 0.434-1.135 0.881-1.553 0.723-0.677 1.73-0.957 2.695-0.746 0.799 0.174 1.419 0.59 1.792 1.2 0.362 0.593 0.463 1.325 0.289 2.119-0.809 3.682-2.862 6.009-4.964 7.977z"></path>
<path fill="#4c2f1b" style="fill: var(--color5, #4c2f1b)" d="M21.73 21.734c-4.254 3.983-8.958 4.914-9.005 4.923-0.948 0.143-1.83-0.002-2.544-0.42-0.843-0.495-1.392-1.333-1.544-2.357-0.182-1.206 0.242-2.426 1.136-3.262 0.549-0.514 1.228-0.845 1.962-0.959 0.027-0.003 3.034-0.503 5.409-2.726 1.379-1.291 2.293-2.927 2.717-4.863 0.161-0.738 0.538-1.401 1.089-1.917 0.893-0.836 2.138-1.18 3.329-0.919 0.991 0.215 1.767 0.741 2.243 1.521 0.46 0.753 0.59 1.665 0.376 2.637-0.843 3.869-2.982 6.296-5.168 8.342zM10.737 21.646c-0.551 0.516-0.816 1.273-0.71 2.025 0.177 1.184 1.132 1.793 2.491 1.59 0.041-0.006 4.348-0.909 8.244-4.557 2.018-1.889 3.991-4.119 4.755-7.614 0.138-0.627 0.062-1.191-0.22-1.631-0.273-0.425-0.73-0.718-1.322-0.847-0.739-0.16-1.511 0.053-2.064 0.571-0.342 0.32-0.576 0.731-0.675 1.188-0.485 2.219-1.538 4.101-3.131 5.592-2.61 2.444-5.795 3.031-6.15 3.090-0.456 0.069-0.879 0.274-1.219 0.592z"></path>
<path fill="#4c2f1b" style="fill: var(--color5, #4c2f1b)" d="M15.598 23.435c-0.073 0.068-0.174 0.106-0.28 0.093-0.193-0.021-0.334-0.196-0.31-0.392 0.114-1.005-0.703-1.52-0.736-1.54-0.167-0.103-0.218-0.318-0.117-0.487 0.103-0.167 0.316-0.221 0.485-0.12 0.052 0.031 1.241 0.762 1.073 2.227-0.015 0.089-0.054 0.163-0.114 0.22zM20.417 20.146c-0.045 0.042-0.102 0.072-0.166 0.089-0.191 0.042-0.379-0.078-0.421-0.269-0.221-1.016-1.103-1.098-1.11-1.101-0.194-0.016-0.339-0.186-0.323-0.38s0.186-0.339 0.38-0.323c0.485 0.040 1.478 0.437 1.743 1.651 0.027 0.125-0.016 0.25-0.104 0.332z"></path>
<path fill="#4c2f1b" style="fill: var(--color5, #4c2f1b)" d="M24.076 15.376c-0.040 0.038-0.090 0.065-0.144 0.083-0.189 0.055-0.382-0.056-0.437-0.245-0.256-0.907-1.237-0.888-1.278-0.887-0.194 0.003-0.357-0.145-0.365-0.34s0.146-0.357 0.34-0.366c0.545-0.021 1.659 0.243 1.985 1.401 0.035 0.132-0.009 0.267-0.101 0.354z"></path>
<path fill="#ff6c4a" style="fill: var(--color20, #ff6c4a)" d="M24.903 5.802c-0.065 0.061-0.147 0.105-0.235 0.126l-0.872 0.205c-0.267 0.062-0.536-0.095-0.613-0.358l-0.242-0.837c-0.054-0.189 0.001-0.386 0.144-0.52 0.166-0.155 0.41-0.186 0.605-0.073l1.114 0.632c0.143 0.082 0.238 0.224 0.259 0.388 0.018 0.161-0.040 0.324-0.161 0.437z"></path>
<path fill="#4c2f1b" style="fill: var(--color5, #4c2f1b)" d="M23.325 4.674c0.048-0.045 0.121-0.062 0.19-0.023l1.114 0.631c0.102 0.059 0.108 0.191 0.033 0.261-0.020 0.019-0.045 0.032-0.074 0.041l-0.872 0.205c-0.086 0.019-0.169-0.030-0.193-0.111l-0.242-0.841c-0.017-0.064 0.002-0.124 0.044-0.163zM22.842 4.158c-0.241 0.226-0.332 0.56-0.243 0.876l0.242 0.836c0.129 0.444 0.584 0.709 1.034 0.602l0.872-0.205c0.149-0.036 0.285-0.107 0.396-0.211 0.201-0.188 0.302-0.467 0.268-0.74-0.032-0.271-0.197-0.517-0.435-0.651l-1.114-0.632c-0.329-0.185-0.741-0.138-1.019 0.123z"></path>
<path fill="#ff6c4a" style="fill: var(--color20, #ff6c4a)" d="M4.903 23.182c-0.12 0.113-0.287 0.161-0.449 0.129s-0.294-0.134-0.37-0.284l-0.557-1.153c-0.098-0.205-0.053-0.444 0.115-0.601 0.143-0.134 0.344-0.176 0.528-0.109l0.819 0.296c0.257 0.093 0.396 0.373 0.317 0.635l-0.262 0.856c-0.027 0.092-0.076 0.17-0.141 0.231z"></path>
<path fill="#4c2f1b" style="fill: var(--color5, #4c2f1b)" d="M3.883 21.536c0.043-0.040 0.101-0.057 0.166-0.034l0.819 0.296c0.079 0.029 0.125 0.118 0.098 0.2l-0.262 0.856c-0.011 0.029-0.026 0.052-0.046 0.071-0.075 0.070-0.206 0.056-0.258-0.050l-0.557-1.153c-0.029-0.071-0.007-0.143 0.041-0.188zM3.4 21.019c-0.278 0.261-0.358 0.669-0.19 1.014l0.557 1.153c0.121 0.249 0.353 0.427 0.621 0.477 0.273 0.050 0.555-0.031 0.756-0.218 0.11-0.103 0.193-0.236 0.236-0.381l0.262-0.856c0.136-0.443-0.098-0.914-0.535-1.070l-0.819-0.296c-0.307-0.117-0.647-0.048-0.888 0.178z"></path>
</symbol>
<symbol id="icon-pizza" viewBox="0 0 32 32">
<path fill="#f2c05a" style="fill: var(--color22, #f2c05a)" d="M1.299 18.599v3.447h27.316c0.768 0 1.354-3.507 1.354-3.507l-28.67 0.061z"></path>
<path fill="#4c2f1b" style="fill: var(--color5, #4c2f1b)" d="M1.299 22.889c-0.473 0-0.845-0.37-0.845-0.843v-3.447c0-0.465 0.379-0.843 0.845-0.843l28.691-0.061c0.238 0 0.485 0.113 0.628 0.288 0.165 0.197 0.228 0.437 0.18 0.676-0.7 4.23-1.762 4.23-2.162 4.23h-27.337zM28.379 21.223l0.057-0.114c0.128-0.255 0.276-0.709 0.479-1.47l0.069-0.259-26.82 0.061v1.781h26.215z"></path>
<path fill="#ffde8a" style="fill: var(--color23, #ffde8a)" d="M22.615 1.546c-0.586-0.302-1.313-0.222-1.798 0.222l-19.497 16.832h3.637v9.696c0 1.149 0.929 2.076 2.081 2.076s2.081-0.927 2.081-2.076v-9.696h2.162v4.576c0 1.169 0.97 2.137 2.142 2.137s2.142-0.967 2.142-2.137v-4.576h3.091c0.303 1.149 1.334 1.996 2.566 1.996s2.283-0.847 2.566-1.996l6.223-0.020c1.959-11.147-4.748-15.703-7.395-17.034z"></path>
<path fill="#ff5c5c" style="fill: var(--color24, #ff5c5c)" d="M16.189 8.883c1.192 0 2.142-0.947 2.142-2.137 0-0.827-0.465-1.512-1.132-1.874l-3.010 2.6c0.303 0.827 1.071 1.411 2 1.411z"></path>
<path fill="#4c2f1b" style="fill: var(--color5, #4c2f1b)" d="M16.189 9.306c-1.071 0-2.041-0.685-2.404-1.693-0.061-0.161-0.020-0.343 0.121-0.463l3.010-2.6c0.121-0.121 0.323-0.141 0.464-0.060 0.849 0.444 1.354 1.31 1.354 2.238 0.021 1.431-1.131 2.58-2.545 2.58zM14.694 7.593c0.303 0.544 0.869 0.887 1.495 0.887 0.95 0 1.718-0.766 1.718-1.713 0-0.544-0.263-1.048-0.687-1.371l-2.526 2.197z"></path>
<path fill="#ff5c5c" style="fill: var(--color24, #ff5c5c)" d="M23.281 10.717c-0.243 1.028 0.424 2.076 1.454 2.298 0.727 0.161 1.434-0.101 1.879-0.625l-1.697-3.165c-0.788 0.101-1.455 0.665-1.637 1.491z"></path>
<path fill="#4c2f1b" style="fill: var(--color5, #4c2f1b)" d="M25.16 13.479c-0.162 0-0.343-0.020-0.505-0.060-1.253-0.282-2.061-1.532-1.778-2.802 0.222-0.947 1.010-1.673 2-1.794 0.162-0.020 0.344 0.060 0.424 0.222l1.697 3.145c0.081 0.161 0.061 0.342-0.061 0.464-0.465 0.524-1.111 0.826-1.778 0.826zM23.685 10.799c-0.081 0.403-0.020 0.806 0.202 1.129 0.223 0.342 0.546 0.585 0.95 0.665 0.445 0.101 0.909-0.020 1.273-0.302l-1.394-2.6c-0.525 0.181-0.909 0.584-1.030 1.109z"></path>
<path fill="#4c2f1b" style="fill: var(--color5, #4c2f1b)" d="M7.016 31.194c-1.613 0-2.926-1.309-2.926-2.919v-8.853h-2.792c-0.36 0-0.664-0.214-0.775-0.545-0.133-0.333-0.035-0.701 0.239-0.926l19.501-16.835c0.452-0.385 1.025-0.597 1.613-0.597 0.387 0 0.761 0.088 1.11 0.263 2.368 1.191 9.931 6 7.83 17.882-0.064 0.399-0.42 0.697-0.828 0.697l-5.642 0.021-0.057 0.11c-0.602 1.163-1.786 1.885-3.090 1.885s-2.488-0.722-3.090-1.885l-0.058-0.111h-1.664v3.733c0 1.632-1.331 2.959-2.966 2.959s-2.966-1.327-2.966-2.959v-3.733h-0.492v8.853c-0.019 1.631-1.34 2.96-2.946 2.96zM21.856 2.206c-0.19 0-0.366 0.067-0.51 0.194l-17.791 15.356h1.38c0.234 0 0.438 0.083 0.574 0.234 0.166 0.166 0.25 0.374 0.25 0.609v9.696c0 0.691 0.564 1.254 1.256 1.254 0.705 0 1.256-0.551 1.256-1.254v-9.696c0-0.465 0.379-0.843 0.845-0.843h2.162c0.234 0 0.438 0.083 0.574 0.234 0.166 0.166 0.25 0.374 0.25 0.609v4.576c0 0.713 0.582 1.294 1.297 1.294s1.297-0.58 1.297-1.294v-4.596c0-0.465 0.379-0.843 0.845-0.843h3.091c0.386 0 0.712 0.254 0.811 0.633 0.207 0.802 0.929 1.363 1.755 1.363s1.548-0.561 1.755-1.363c0.099-0.378 0.425-0.632 0.811-0.632l5.513-0.021 0.025-0.176c1.376-9.829-4.493-13.939-7.080-15.249-0.125-0.057-0.246-0.084-0.367-0.084z"></path>
<path fill="#ffb07b" style="fill: var(--color25, #ffb07b)" d="M29.989 18.538c2.021-11.349-5.011-15.844-7.536-17.073-0.505-0.242-1.112-0.161-1.536 0.202l-1.535 1.331c3.354 2.499 8.991 7.116 7.273 15.562l3.334-0.021z"></path>
<path fill="#4c2f1b" style="fill: var(--color5, #4c2f1b)" d="M26.656 19.382c-0.245 0-0.489-0.116-0.65-0.309-0.161-0.192-0.228-0.452-0.179-0.695 1.479-7.295-2.693-11.534-6.968-14.718-0.202-0.14-0.325-0.377-0.342-0.655-0.016-0.251 0.090-0.49 0.29-0.656l1.539-1.333c0.411-0.354 0.93-0.549 1.462-0.549 0.338 0 0.676 0.081 0.977 0.234 2.418 1.177 10.131 5.945 7.993 17.984-0.064 0.399-0.42 0.697-0.828 0.697h-3.293zM21.819 2.153c-0.139 0-0.277 0.050-0.387 0.142l-0.734 0.651 0.194 0.152c1.938 1.518 7.835 6.139 6.772 14.366l-0.030 0.231h1.625l0.025-0.177c1.402-10.017-4.587-14.044-7.227-15.311-0.070-0.035-0.153-0.054-0.238-0.054z"></path>
<path fill="#e2803d" style="fill: var(--color26, #e2803d)" d="M26.655 18.538c0 0-0.182 2.217-0.99 3.507h2.97c0 0 1.051-0.565 1.354-3.507h-3.334z"></path>
<path fill="#4c2f1b" style="fill: var(--color5, #4c2f1b)" d="M25.665 22.889c-0.311 0-0.583-0.163-0.727-0.435-0.151-0.269-0.145-0.59 0.013-0.843 0.582-0.945 0.821-2.624 0.859-3.137 0.031-0.425 0.394-0.758 0.825-0.758h3.334c0.247 0 0.469 0.097 0.609 0.268 0.176 0.194 0.249 0.415 0.218 0.649-0.343 3.239-1.552 4.033-1.792 4.16-0.097 0.063-0.234 0.097-0.369 0.097h-2.97zM27.383 19.546c-0.080 0.399-0.18 0.896-0.338 1.411l-0.082 0.265h1.355l0.062-0.088c0.139-0.198 0.402-0.658 0.598-1.503l0.058-0.251h-1.62l-0.033 0.165z"></path>
<path fill="#ff5c5c" style="fill: var(--color24, #ff5c5c)" d="M10.613 14.326c0 0.768 0.624 1.391 1.394 1.391s1.394-0.623 1.394-1.391-0.624-1.391-1.394-1.391c-0.77 0-1.394 0.623-1.394 1.391z"></path>
<path fill="#4c2f1b" style="fill: var(--color5, #4c2f1b)" d="M12.007 16.14c-0.99 0-1.819-0.806-1.819-1.814s0.808-1.814 1.819-1.814c1.010 0 1.818 0.806 1.818 1.814s-0.808 1.814-1.818 1.814zM12.007 13.358c-0.545 0-0.97 0.444-0.97 0.967s0.444 0.967 0.97 0.967 0.97-0.444 0.97-0.967c0-0.524-0.424-0.967-0.97-0.967z"></path>
<path fill="#3de25c" style="fill: var(--color27, #3de25c)" d="M18.877 15.716h-2.93c-0.162 0-0.303-0.141-0.303-0.302v-0.665c0-0.161 0.142-0.302 0.303-0.302h2.93c0.162 0 0.303 0.141 0.303 0.302v0.665c0.020 0.161-0.122 0.302-0.303 0.302z"></path>
<path fill="#4c2f1b" style="fill: var(--color5, #4c2f1b)" d="M18.553 16.14h-2.263c-0.586 0-1.051-0.464-1.051-1.048s0.465-1.048 1.051-1.048h2.263c0.586 0 1.051 0.464 1.051 1.048s-0.465 1.048-1.051 1.048zM16.291 14.87c-0.121 0-0.222 0.101-0.222 0.222s0.101 0.222 0.222 0.222h2.263c0.121 0 0.222-0.101 0.222-0.222s-0.101-0.222-0.222-0.222h-2.263z"></path>
<path fill="#3de25c" style="fill: var(--color27, #3de25c)" d="M20.897 12.673l-1.556-1.693c-0.061-0.060-0.061-0.161 0-0.222l0.707-0.645c0.061-0.060 0.162-0.060 0.223 0l1.556 1.693c0.061 0.060 0.061 0.161 0 0.222l-0.707 0.645c-0.041 0.061-0.162 0.061-0.223 0z"></path>
<path fill="#4c2f1b" style="fill: var(--color5, #4c2f1b)" d="M21.039 13.075h-0.040c-0.202 0-0.384-0.101-0.525-0.242l-1.333-1.431c-0.142-0.141-0.202-0.342-0.202-0.544s0.101-0.383 0.243-0.524l0.444-0.403c0.142-0.141 0.344-0.202 0.546-0.202s0.384 0.101 0.525 0.242l1.333 1.431c0.142 0.141 0.202 0.343 0.202 0.544s-0.101 0.383-0.243 0.524l-0.444 0.403c-0.142 0.12-0.324 0.201-0.506 0.201zM19.827 10.878l1.212 1.31 0.323-0.303-1.212-1.31-0.323 0.303z"></path>
</symbol>
<symbol id="icon-search-menu" viewBox="0 0 32 32">
<path fill="none" stroke="#c2c3cb" style="stroke: var(--color28, #c2c3cb)" stroke-linejoin="miter" stroke-linecap="butt" stroke-miterlimit="4" stroke-width="1.8286" d="M19.905 7.651c3.349 3.349 3.349 8.778 0 12.126s-8.778 3.349-12.126 0c-3.349-3.349-3.349-8.778 0-12.126s8.778-3.349 12.126 0z"></path>
<path fill="none" stroke="#c2c3cb" style="stroke: var(--color28, #c2c3cb)" stroke-linejoin="round" stroke-linecap="round" stroke-miterlimit="4" stroke-width="2.7429" d="M20.582 20.085l4.337 4.235"></path>
</symbol>
<symbol id="icon-menu-hero" viewBox="0 0 40 32">
<path fill="none" stroke="#685bb8" style="stroke: var(--color1, #685bb8)" stroke-linejoin="round" stroke-linecap="round" stroke-miterlimit="1.5" stroke-width="2.5013" d="M15.235 6.558c-4.14 3.726-7.652 7.731-11.541 11.574"></path>
<path fill="none" stroke="#685bb8" style="stroke: var(--color1, #685bb8)" stroke-linejoin="round" stroke-linecap="round" stroke-miterlimit="1.5" stroke-width="2.5013" d="M33.894 7.211c-9.183 4.197-17.862 9.17-26.034 14.292"></path>
<path fill="none" stroke="#685bb8" style="stroke: var(--color1, #685bb8)" stroke-linejoin="round" stroke-linecap="round" stroke-miterlimit="1.5" stroke-width="2.5013" d="M35.239 20.677c-7.472 0.433-17.648 3.34-25.008 5.084"></path>
</symbol>
<symbol id="icon-contact" viewBox="0 0 84 32">
<path fill="none" stroke="#f9f9f9" style="stroke: var(--color1, #f9f9f9)" stroke-linejoin="miter" stroke-linecap="round" stroke-miterlimit="4" stroke-width="1" d="M4.453 11.428c6.663-1.421 14.817-2.142 21.343-0.081 1.653 0.522 3.073 1.314 4.128 2.247M29.924 13.594c1.607 1.421 2.367 3.167 1.813 4.778-0.867 2.521-3.61 4.866-8.382 5.112-2.487 0.128-4.757-0.38-5.509-1.836-1.149-2.223 2.356-4.831 5.322-6.025 2.050-0.825 4.334-1.505 6.757-2.029zM81.211 12.439c-6.549-1.583-14.641-2.502-21.317-0.603-1.691 0.481-3.17 1.238-4.294 2.144M55.6 13.981c-1.713 1.38-2.604 3.106-2.172 4.729 0.676 2.54 3.239 4.95 7.987 5.312 2.475 0.189 4.782-0.264 5.643-1.699 1.316-2.193-1.989-4.884-4.861-6.15-1.986-0.875-4.216-1.609-6.597-2.193zM55.6 13.981c-8.367-2.050-17.705-2.512-25.761-0.404"></path>
<path fill="none" stroke="#f9f9f9" style="stroke: var(--color1, #f9f9f9)" stroke-linejoin="miter" stroke-linecap="round" stroke-miterlimit="4" stroke-width="1" d="M77.379 8.409c1.294 0.879 4.148 2.954 5.211 4.222"></path>
<path fill="none" stroke="#f9f9f9" style="stroke: var(--color1, #f9f9f9)" stroke-linejoin="miter" stroke-linecap="round" stroke-miterlimit="4" stroke-width="1" d="M82.592 12.631c-1.858 0.446-6.065 1.55-8.029 2.401"></path>
</symbol>
<symbol id="icon-Arrow" viewBox="0 0 32 32">
<path fill="none" stroke="#6c5fbc" style="stroke: var(--color1, #6c5fbc)" stroke-linejoin="round" stroke-linecap="round" stroke-miterlimit="1.5" stroke-width="0.5607" d="M25.645 18.329c-3.148 2.377-6.87 3.943-10.93 3.209-3.664-0.663-6.078-3.291-3.799-6.858 1.078-1.688 3.486-2.969 5.465-2.163 2.205 0.898 0.63 3.593-0.714 4.424-3.139 1.94-7.715 1.4-10.109-1.858-2.835-3.859 1.538-6.127 1.543-6.095"></path>
<path fill="none" stroke="#6c5fbc" style="stroke: var(--color1, #6c5fbc)" stroke-linejoin="round" stroke-linecap="round" stroke-miterlimit="1.5" stroke-width="0.5607" d="M25.151 22.695c-0.138-0.414-0.090-0.839-0.064-1.266 0.085-1.402 0.626-2.884 1.675-3.864-1.412 0.652-3.465 1.022-4.819 0.108"></path>
</symbol>
<symbol id="icon-bottom-price" viewBox="0 0 34 32">
<path fill="none" stroke="#5c4eae" style="stroke: var(--color1, #5c4eae)" stroke-linejoin="round" stroke-linecap="round" stroke-miterlimit="1.5" stroke-width="2.2357" d="M24.446 27.272c2.517-5.762 4.369-11.733 6.618-17.586"></path>
<path fill="none" stroke="#5c4eae" style="stroke: var(--color1, #5c4eae)" stroke-linejoin="round" stroke-linecap="round" stroke-miterlimit="1.5" stroke-width="2.2357" d="M7.259 30.866c6.944-7.565 13.171-16.003 18.887-24.514"></path>
<path fill="none" stroke="#5c4eae" style="stroke: var(--color1, #5c4eae)" stroke-linejoin="round" stroke-linecap="round" stroke-miterlimit="1.5" stroke-width="2.2357" d="M1.523 13.915c6.65-2.33 14.93-8.475 21.039-12.461"></path>
</symbol>
<symbol id="icon-top-price" viewBox="0 0 36 32">
<path fill="none" stroke="#f7f7f7" style="stroke: var(--color2, #f7f7f7)" stroke-linejoin="round" stroke-linecap="round" stroke-miterlimit="1.5" stroke-width="2.4592" d="M12.237 1.968c-3.862 5.737-7.046 11.833-10.637 17.721"></path>
<path fill="none" stroke="#f7f7f7" style="stroke: var(--color2, #f7f7f7)" stroke-linejoin="round" stroke-linecap="round" stroke-miterlimit="1.5" stroke-width="2.4592" d="M31.545 1.476c-9.010 6.813-17.416 14.714-25.283 22.794"></path>
<path fill="none" stroke="#f7f7f7" style="stroke: var(--color2, #f7f7f7)" stroke-linejoin="round" stroke-linecap="round" stroke-miterlimit="1.5" stroke-width="2.4592" d="M34.4 20.952c-7.656 1.207-17.831 6.22-25.229 9.325"></path>
</symbol>
<symbol id="icon-arrow-price" viewBox="0 0 34 32">
<path fill="none" stroke="#fff" style="stroke: var(--color3, #fff)" stroke-linejoin="round" stroke-linecap="round" stroke-miterlimit="1.5" stroke-width="1.2813" d="M0.781 25.947c0.898 1.627 2.155 3.792 3.304 5.226M4.084 31.174c0.132 0.165 1.024-1.15 1.060-1.214 0.791-1.405 1.373-2.871 1.934-4.377M4.084 31.174c-2.821-9.699 1.010-19.166 7.582-22.109 0.651-0.292 1.361-0.608 2.095-0.861M13.762 8.204c1.17-0.402 2.403-0.64 3.568-0.353 1.075 0.265 2.363 1.063 2.675 2.179 0.581 2.084-1.762 3.741-3.702 2.976-1.705-0.673-2.996-3.047-2.54-4.802zM13.762 8.204c0.010-0.037 0.020-0.074 0.031-0.11 2.698-8.796 13.514-8.942 19.378-4.22"></path>
</symbol>
<symbol id="icon-cross" viewBox="0 0 32 32">
<path fill="#eb3f5e" style="fill: var(--color1, #eb3f5e)" d="M32 16c0 8.837-7.163 16-16 16s-16-7.163-16-16c0-8.837 7.163-16 16-16s16 7.163 16 16z"></path>
<path fill="#f9f9f9" style="fill: var(--color2, #f9f9f9)" d="M10.671 22.862c-0.388 0-0.777-0.143-1.084-0.45-0.593-0.593-0.593-1.574 0-2.167l11.572-11.572c0.593-0.593 1.574-0.593 2.167 0s0.593 1.574 0 2.167l-11.572 11.572c-0.286 0.307-0.695 0.45-1.084 0.45z"></path>
<path fill="#f9f9f9" style="fill: var(--color2, #f9f9f9)" d="M22.243 22.862c-0.388 0-0.777-0.143-1.084-0.45l-11.572-11.572c-0.593-0.593-0.593-1.574 0-2.167s1.574-0.593 2.167 0l11.572 11.572c0.593 0.593 0.593 1.574 0 2.167-0.307 0.307-0.695 0.45-1.084 0.45z"></path>
</symbol>
<symbol id="icon-tick" viewBox="0 0 32 32">
<path fill="#6c5fbc" style="fill: var(--color3, #6c5fbc)" d="M32 16c0 8.837-7.163 16-16 16s-16-7.163-16-16c0-8.837 7.163-16 16-16s16 7.163 16 16z"></path>
<path fill="none" stroke="#f9f9f9" style="stroke: var(--color2, #f9f9f9)" stroke-linejoin="round" stroke-linecap="round" stroke-miterlimit="4" stroke-width="3.36" d="M9.143 15.848l4.876 4.876 9.752-9.752"></path>
</symbol>
<symbol id="icon-menu" viewBox="0 0 44 32">
<path fill="#918f8f" style="fill: var(--color1, #918f8f)" d="M1.6 1.28v0z"></path>
<path fill="none" stroke="#282828" style="stroke: var(--color2, #282828)" stroke-linejoin="miter" stroke-linecap="round" stroke-miterlimit="4" stroke-width="2.56" d="M1.6 1.28h40.32"></path>
<path fill="#918f8f" style="fill: var(--color1, #918f8f)" d="M1.6 15.568v0z"></path>
<path fill="none" stroke="#282828" style="stroke: var(--color2, #282828)" stroke-linejoin="miter" stroke-linecap="round" stroke-miterlimit="4" stroke-width="2.56" d="M1.6 15.568h40.32"></path>
<path fill="#918f8f" style="fill: var(--color1, #918f8f)" d="M1.6 29.857v0z"></path>
<path fill="none" stroke="#282828" style="stroke: var(--color2, #282828)" stroke-linejoin="miter" stroke-linecap="round" stroke-miterlimit="4" stroke-width="2.56" d="M1.6 29.857h40.32"></path>
</symbol>
<symbol id="icon-menu-close-svg" viewBox="0 0 32 32">
<path d="M31.708 25.708c-0-0-0-0-0-0l-9.708-9.708 9.708-9.708c0-0 0-0 0-0 0.105-0.105 0.18-0.227 0.229-0.357 0.133-0.356 0.057-0.771-0.229-1.057l-4.586-4.586c-0.286-0.286-0.702-0.361-1.057-0.229-0.13 0.048-0.252 0.124-0.357 0.228 0 0-0 0-0 0l-9.708 9.708-9.708-9.708c-0-0-0-0-0-0-0.105-0.104-0.227-0.18-0.357-0.228-0.356-0.133-0.771-0.057-1.057 0.229l-4.586 4.586c-0.286 0.286-0.361 0.702-0.229 1.057 0.049 0.13 0.124 0.252 0.229 0.357 0 0 0 0 0 0l9.708 9.708-9.708 9.708c-0 0-0 0-0 0-0.104 0.105-0.18 0.227-0.229 0.357-0.133 0.355-0.057 0.771 0.229 1.057l4.586 4.586c0.286 0.286 0.702 0.361 1.057 0.229 0.13-0.049 0.252-0.124 0.357-0.229 0-0 0-0 0-0l9.708-9.708 9.708 9.708c0 0 0 0 0 0 0.105 0.105 0.227 0.18 0.357 0.229 0.356 0.133 0.771 0.057 1.057-0.229l4.586-4.586c0.286-0.286 0.362-0.702 0.229-1.057-0.049-0.13-0.124-0.252-0.229-0.357z"></path>
</symbol>
<symbol id="icon-arrow-mob-cont" viewBox="0 0 32 32">
<path fill="none" stroke="#fff" style="stroke: var(--color1, #fff)" stroke-linejoin="round" stroke-linecap="round" stroke-miterlimit="1.5" stroke-width="0.5677" d="M15.716 25.761c-2.91-2.619-5.193-5.913-5.41-9.895-0.196-3.594 1.713-6.31 5.537-4.708 1.81 0.758 3.536 2.846 3.225 4.859-0.346 2.242-3.203 1.172-4.274 0.024-2.501-2.68-3.015-7.123-0.514-9.921 2.961-3.313 6.041 0.489 6.012 0.499"></path>
<path fill="none" stroke="#fff" style="stroke: var(--color1, #fff)" stroke-linejoin="round" stroke-linecap="round" stroke-miterlimit="1.5" stroke-width="0.5677" d="M11.545 25.986c0.354-0.197 0.761-0.219 1.164-0.263 1.323-0.142 2.822 0.137 3.966 0.98-0.919-1.241-1.719-3.136-1.17-4.571"></path>
</symbol>
<symbol id="icon-logo-sign" viewBox="0 0 35 32">
<path fill="#6c5fbc" style="fill: var(--color1, #6c5fbc)" d="M8.019 3.751h21.342c2.9 0 5.251 2.351 5.251 5.251v17.628c0 2.9-2.351 5.251-5.251 5.251h-21.342c-2.9 0-5.251-2.351-5.251-5.251v-17.628c0-2.9 2.351-5.251 5.251-5.251z"></path>
<path fill="#dbd9ee" style="fill: var(--color2, #dbd9ee); stroke: var(--color1, #6c5fbc)" stroke="#6c5fbc" stroke-linejoin="miter" stroke-linecap="butt" stroke-miterlimit="4" stroke-width="1.5181" d="M5.251 0.759h21.342c2.481 0 4.492 2.011 4.492 4.492v17.628c0 2.481-2.011 4.492-4.492 4.492h-21.342c-2.481 0-4.492-2.011-4.492-4.492v-17.628c0-2.481 2.011-4.492 4.492-4.492z"></path>
<path fill="none" stroke="#6c5fbc" style="stroke: var(--color1, #6c5fbc)" stroke-linejoin="round" stroke-linecap="round" stroke-miterlimit="4" stroke-width="1.5703" d="M24.579 9.079l-17.254-0.076"></path>
<path fill="none" stroke="#6c5fbc" style="stroke: var(--color1, #6c5fbc)" stroke-linejoin="round" stroke-linecap="round" stroke-miterlimit="4" stroke-width="1.5703" d="M24.568 12.534l-3.837-0.017c-1.587-0.007-2.871-1.561-2.865-3.467s1.299-3.449 2.886-3.442l3.837 0.017"></path>
<path fill="none" stroke="#6c5fbc" style="stroke: var(--color1, #6c5fbc)" stroke-linejoin="round" stroke-linecap="round" stroke-miterlimit="4" stroke-width="1.5703" d="M13.080 20.132l-5.013-0.056c-0.411-0.002-0.755-0.407-0.763-0.901l-0.033-1.301c-0.008-0.516 0.339-0.952 0.768-0.95l4.957 0.056 0.084 3.152z"></path>
<path fill="none" stroke="#6c5fbc" style="stroke: var(--color1, #6c5fbc)" stroke-linejoin="round" stroke-linecap="round" stroke-miterlimit="4" stroke-width="1.5703" d="M20.954 22.007l-7.086-0.087c-0.411-0.002-0.755-0.407-0.763-0.901l-0.090-4.050 11.512 0.141 0.008 0.516c0.058 2.445-1.554 4.412-3.58 4.381z"></path>
</symbol>
<symbol id="icon-google" viewBox="0 0 32 32">
<path d="M23.003 9.865c-0.693-1.27-1.646-2.238-2.858-2.902s-2.627-0.996-4.244-0.996c-1.79 0-3.378 0.404-4.764 1.213s-2.469 1.963-3.248 3.465c-0.78 1.501-1.169 3.234-1.169 5.197 0 2.021 0.39 3.782 1.169 5.284 0.808 1.501 1.92 2.656 3.335 3.465s3.061 1.213 4.937 1.213c2.31 0 4.201-0.606 5.674-1.819 1.472-1.242 2.44-2.96 2.902-5.154h-10.394v-4.634h16.371v5.284c-0.404 2.108-1.27 4.057-2.599 5.847s-3.046 3.234-5.154 4.331c-2.079 1.068-4.418 1.602-7.016 1.602-2.916 0-5.558-0.65-7.926-1.949-2.339-1.328-4.187-3.162-5.544-5.5-1.328-2.339-1.992-4.995-1.992-7.969s0.664-5.63 1.992-7.969c1.357-2.368 3.205-4.201 5.544-5.5 2.368-1.328 4.995-1.992 7.882-1.992 3.407 0 6.366 0.837 8.878 2.512 2.512 1.646 4.244 3.97 5.197 6.973h-6.973z"></path>
</symbol>
<symbol id="icon-apple" viewBox="0 0 28 32">
<path d="M26.353 25.015c-0.474 1.083-1.035 2.079-1.685 2.995-0.886 1.249-1.611 2.113-2.17 2.594-0.867 0.788-1.795 1.192-2.789 1.214-0.714 0-1.575-0.201-2.576-0.608-1.005-0.405-1.929-0.606-2.774-0.606-0.886 0-1.836 0.201-2.852 0.606-1.018 0.407-1.838 0.62-2.465 0.641-0.953 0.040-1.904-0.375-2.852-1.247-0.605-0.522-1.363-1.417-2.27-2.685-0.973-1.354-1.774-2.925-2.4-4.715-0.671-1.934-1.008-3.806-1.008-5.619 0-2.076 0.454-3.867 1.363-5.368 0.714-1.205 1.665-2.156 2.854-2.855s2.475-1.054 3.858-1.077c0.757 0 1.75 0.232 2.984 0.687 1.231 0.457 2.021 0.688 2.367 0.688 0.259 0 1.137-0.271 2.625-0.811 1.407-0.501 2.595-0.708 3.568-0.626 2.636 0.21 4.617 1.238 5.934 3.089-2.358 1.413-3.524 3.391-3.501 5.93 0.021 1.977 0.747 3.622 2.172 4.929 0.646 0.606 1.368 1.075 2.17 1.408-0.174 0.499-0.358 0.977-0.553 1.436zM20.307 1.488c0 1.55-0.573 2.996-1.714 4.336-1.377 1.592-3.043 2.512-4.849 2.367-0.023-0.186-0.036-0.382-0.036-0.587 0-1.488 0.655-3.080 1.818-4.381 0.581-0.659 1.319-1.207 2.215-1.644 0.894-0.431 1.739-0.669 2.534-0.71 0.023 0.207 0.033 0.414 0.033 0.62v0z"></path>
</symbol>
<symbol id="icon-user" viewBox="0 0 31 32">
<path  d="M7.1 8.224c0-4.333 3.513-7.846 7.846-7.846s7.846 3.513 7.846 7.846-3.513 7.846-7.846 7.846c-4.333 0-7.846-3.513-7.846-7.846zM14.946 3.147c-2.804 0-5.077 2.273-5.077 5.077s2.273 5.077 5.077 5.077c2.804 0 5.077-2.273 5.077-5.077s-2.273-5.077-5.077-5.077z"></path>
<path  d="M7.562 21.608c-2.294 0-4.154 1.86-4.154 4.154v2.194c0 0.033 0.024 0.062 0.057 0.067 7.604 1.241 15.359 1.241 22.963 0 0.033-0.005 0.057-0.034 0.057-0.067v-2.194c0-2.294-1.86-4.154-4.154-4.154h-0.629c-0.049 0-0.097 0.008-0.143 0.023l-1.598 0.522c-3.258 1.064-6.77 1.064-10.028 0l-1.598-0.522c-0.046-0.015-0.095-0.023-0.143-0.023h-0.629zM0.639 25.762c0-3.823 3.1-6.923 6.923-6.923h0.629c0.341 0 0.679 0.054 1.003 0.16l1.598 0.522c2.7 0.882 5.61 0.882 8.309 0l1.598-0.522c0.324-0.106 0.662-0.16 1.003-0.16h0.629c3.823 0 6.923 3.1 6.923 6.923v2.194c0 1.39-1.008 2.576-2.38 2.8-7.899 1.29-15.956 1.29-23.855 0-1.372-0.224-2.38-1.41-2.38-2.8v-2.194z"></path>
</symbol>
<symbol id="icon-email" viewBox="0 0 41 32">
<path  d="M1.029 8.746c-0.599 5.314-0.572 11.442 0.261 16.734 0.461 2.928 2.963 5.173 6.052 5.43l3.228 0.268c6.731 0.559 13.5 0.559 20.231 0l3.228-0.268c3.089-0.256 5.591-2.501 6.052-5.43 0.833-5.292 0.86-11.42 0.261-16.734-0.077-0.616-0.164-1.231-0.261-1.845-0.461-2.928-2.963-5.173-6.052-5.43l-3.228-0.268c-6.731-0.559-13.5-0.559-20.231 0l-3.228 0.268c-3.089 0.256-5.591 2.501-6.052 5.43-0.097 0.614-0.184 1.229-0.261 1.845zM10.848 4.255c6.546-0.543 13.129-0.543 19.676 0l3.228 0.268c1.612 0.134 2.918 1.306 3.159 2.834 0.025 0.159 0.049 0.318 0.073 0.476l-11.886 6.307c-2.743 1.456-6.080 1.456-8.823 0l-11.886-6.307c0.024-0.159 0.048-0.318 0.073-0.476 0.241-1.529 1.547-2.7 3.159-2.834l3.228-0.268zM37.376 11.128c0.415 4.63 0.26 9.294-0.465 13.897-0.241 1.529-1.547 2.7-3.159 2.834l-3.228 0.268c-6.546 0.543-13.129 0.543-19.676 0l-3.228-0.268c-1.612-0.134-2.919-1.306-3.159-2.834-0.725-4.603-0.88-9.268-0.465-13.897l10.722 5.689c3.712 1.97 8.225 1.97 11.937 0l10.722-5.689z"></path>
</symbol>
<symbol id="icon-password" viewBox="0 0 25 32">
<path  d="M10.396 22.513c0-1.355 1.098-2.454 2.454-2.454s2.453 1.099 2.453 2.454c0 1.355-1.098 2.453-2.453 2.453s-2.454-1.099-2.454-2.453z"></path>
<path  d="M5.688 13.675l-0.516-4.644c-0.066-0.595-0.066-1.196 0-1.792l0.037-0.335c0.395-3.555 3.19-6.368 6.742-6.786 0.597-0.070 1.2-0.070 1.796 0 3.552 0.418 6.347 3.231 6.742 6.786l0.037 0.335c0.066 0.595 0.066 1.196 0 1.792l-0.516 4.644 1.123 0.090c1.771 0.141 3.217 1.473 3.504 3.226 0.599 3.657 0.599 7.387 0 11.044-0.287 1.753-1.733 3.085-3.504 3.226l-2.447 0.195c-3.885 0.31-7.789 0.31-11.675 0l-2.447-0.195c-1.771-0.141-3.217-1.473-3.504-3.226-0.599-3.657-0.599-7.387 0-11.044 0.287-1.753 1.733-3.085 3.504-3.226l1.123-0.090zM12.238 2.556c0.406-0.048 0.817-0.048 1.223 0 2.419 0.285 4.321 2.2 4.59 4.62l0.037 0.335c0.046 0.415 0.046 0.834 0 1.25l-0.525 4.728c-3.139-0.202-6.288-0.202-9.427 0l-0.525-4.728c-0.046-0.415-0.046-0.834 0-1.25l0.037-0.335c0.269-2.42 2.172-4.335 4.59-4.62zM18.492 16.015c-3.755-0.3-7.529-0.3-11.284 0l-2.447 0.195c-0.646 0.052-1.173 0.537-1.278 1.177-0.556 3.394-0.556 6.856 0 10.251 0.105 0.64 0.632 1.125 1.278 1.177l2.447 0.195c3.755 0.3 7.529 0.3 11.284 0l2.447-0.195c0.646-0.051 1.173-0.537 1.278-1.177 0.556-3.394 0.556-6.856 0-10.251-0.105-0.639-0.632-1.125-1.278-1.177l-2.447-0.195z"></path>
</symbol>
</defs>
</svg>
